<svg xmlns="http://www.w3.org/2000/svg" version="1.1" xmlns:xlink="http://www.w3.org/1999/xlink" xmlns:svgjs="http://svgjs.com/svgjs" width="1440" height="560" preserveAspectRatio="none" viewBox="0 0 1440 560"><g mask="url(&quot;#SvgjsMask1048&quot;)" fill="none"><path d="M-106.52 381.9L-106.52 381.9" stroke="rgba(19, 46, 101, 0.5)" stroke-width="1.5"></path><path d="M-106.52 381.9L39.33 368.92" stroke="rgba(19, 46, 101, 0.5)" stroke-width="1.5"></path><path d="M-106.52 381.9L-39.79 548.81" stroke="rgba(19, 46, 101, 0.5)" stroke-width="1.5"></path><path d="M-106.52 381.9L-95.02 690.83" stroke="rgba(19, 46, 101, 0.5)" stroke-width="1.5"></path><path d="M-39.79 548.81L-39.79 548.81" stroke="rgba(19, 46, 101, 0.5)" stroke-width="1.5"></path><path d="M-39.79 548.81L-95.02 690.83" stroke="rgba(19, 46, 101, 0.5)" stroke-width="1.5"></path><path d="M-39.79 548.81L60.36 684.85" stroke="rgba(19, 46, 101, 0.5)" stroke-width="1.5"></path><path d="M-39.79 548.81L39.33 368.92" stroke="rgba(19, 46, 101, 0.5)" stroke-width="1.5"></path><path d="M-95.02 690.83L-95.02 690.83" stroke="rgba(19, 46, 101, 0.5)" stroke-width="1.5"></path><path d="M-95.02 690.83L60.36 684.85" stroke="rgba(19, 46, 101, 0.5)" stroke-width="1.5"></path><path d="M39.33 368.92L39.33 368.92" stroke="rgba(19, 46, 101, 0.5)" stroke-width="1.5"></path><path d="M39.33 368.92L223.11 406.58" stroke="rgba(19, 46, 101, 0.5)" stroke-width="1.5"></path><path d="M39.33 368.92L225.66 512.17" stroke="rgba(19, 46, 101, 0.5)" stroke-width="1.5"></path><path d="M39.33 368.92L60.36 684.85" stroke="rgba(19, 46, 101, 0.5)" stroke-width="1.5"></path><path d="M60.36 684.85L60.36 684.85" stroke="rgba(19, 46, 101, 0.5)" stroke-width="1.5"></path><path d="M223.11 406.58L223.11 406.58" stroke="rgba(19, 46, 101, 0.5)" stroke-width="1.5"></path><path d="M223.11 406.58L225.66 512.17" stroke="rgba(19, 46, 101, 0.5)" stroke-width="1.5"></path><path d="M223.11 406.58L361.96 408.08" stroke="rgba(19, 46, 101, 0.5)" stroke-width="1.5"></path><path d="M223.11 406.58L362.73 499" stroke="rgba(19, 46, 101, 0.5)" stroke-width="1.5"></path><path d="M223.11 406.58L370.28 647.79" stroke="rgba(19, 46, 101, 0.5)" stroke-width="1.5"></path><path d="M223.11 406.58L514.7 373.82" stroke="rgba(19, 46, 101, 0.5)" stroke-width="1.5"></path><path d="M225.66 512.17L225.66 512.17" stroke="rgba(19, 46, 101, 0.5)" stroke-width="1.5"></path><path d="M225.66 512.17L362.73 499" stroke="rgba(19, 46, 101, 0.5)" stroke-width="1.5"></path><path d="M225.66 512.17L361.96 408.08" stroke="rgba(19, 46, 101, 0.5)" stroke-width="1.5"></path><path d="M361.96 408.08L361.96 408.08" stroke="rgba(19, 46, 101, 0.5)" stroke-width="1.5"></path><path d="M361.96 408.08L362.73 499" stroke="rgba(19, 46, 101, 0.5)" stroke-width="1.5"></path><path d="M361.96 408.08L514.7 373.82" stroke="rgba(19, 46, 101, 0.5)" stroke-width="1.5"></path><path d="M362.73 499L362.73 499" stroke="rgba(19, 46, 101, 0.5)" stroke-width="1.5"></path><path d="M370.28 647.79L370.28 647.79" stroke="rgba(19, 46, 101, 0.5)" stroke-width="1.5"></path><path d="M370.28 647.79L513.3 677.75" stroke="rgba(19, 46, 101, 0.5)" stroke-width="1.5"></path><path d="M370.28 647.79L362.73 499" stroke="rgba(19, 46, 101, 0.5)" stroke-width="1.5"></path><path d="M370.28 647.79L225.66 512.17" stroke="rgba(19, 46, 101, 0.5)" stroke-width="1.5"></path><path d="M370.28 647.79L530.31 522.08" stroke="rgba(19, 46, 101, 0.5)" stroke-width="1.5"></path><path d="M370.28 647.79L361.96 408.08" stroke="rgba(19, 46, 101, 0.5)" stroke-width="1.5"></path><path d="M514.7 373.82L514.7 373.82" stroke="rgba(19, 46, 101, 0.5)" stroke-width="1.5"></path><path d="M514.7 373.82L530.31 522.08" stroke="rgba(19, 46, 101, 0.5)" stroke-width="1.5"></path><path d="M514.7 373.82L711.07 361.23" stroke="rgba(19, 46, 101, 0.5)" stroke-width="1.5"></path><path d="M514.7 373.82L362.73 499" stroke="rgba(19, 46, 101, 0.5)" stroke-width="1.5"></path><path d="M514.7 373.82L671.93 500.44" stroke="rgba(19, 46, 101, 0.5)" stroke-width="1.5"></path><path d="M530.31 522.08L530.31 522.08" stroke="rgba(19, 46, 101, 0.5)" stroke-width="1.5"></path><path d="M530.31 522.08L671.93 500.44" stroke="rgba(19, 46, 101, 0.5)" stroke-width="1.5"></path><path d="M530.31 522.08L513.3 677.75" stroke="rgba(19, 46, 101, 0.5)" stroke-width="1.5"></path><path d="M530.31 522.08L362.73 499" stroke="rgba(19, 46, 101, 0.5)" stroke-width="1.5"></path><path d="M530.31 522.08L361.96 408.08" stroke="rgba(19, 46, 101, 0.5)" stroke-width="1.5"></path><path d="M513.3 677.75L513.3 677.75" stroke="rgba(19, 46, 101, 0.5)" stroke-width="1.5"></path><path d="M513.3 677.75L362.73 499" stroke="rgba(19, 46, 101, 0.5)" stroke-width="1.5"></path><path d="M513.3 677.75L671.93 500.44" stroke="rgba(19, 46, 101, 0.5)" stroke-width="1.5"></path><path d="M711.07 361.23L711.07 361.23" stroke="rgba(19, 46, 101, 0.5)" stroke-width="1.5"></path><path d="M711.07 361.23L824.51 376" stroke="rgba(19, 46, 101, 0.5)" stroke-width="1.5"></path><path d="M711.07 361.23L671.93 500.44" stroke="rgba(19, 46, 101, 0.5)" stroke-width="1.5"></path><path d="M711.07 361.23L810.73 561.77" stroke="rgba(19, 46, 101, 0.5)" stroke-width="1.5"></path><path d="M711.07 361.23L530.31 522.08" stroke="rgba(19, 46, 101, 0.5)" stroke-width="1.5"></path><path d="M711.07 361.23L962.39 399.53" stroke="rgba(19, 46, 101, 0.5)" stroke-width="1.5"></path><path d="M671.93 500.44L671.93 500.44" stroke="rgba(19, 46, 101, 0.5)" stroke-width="1.5"></path><path d="M671.93 500.44L810.73 561.77" stroke="rgba(19, 46, 101, 0.5)" stroke-width="1.5"></path><path d="M671.93 500.44L824.51 376" stroke="rgba(19, 46, 101, 0.5)" stroke-width="1.5"></path><path d="M824.51 376L824.51 376" stroke="rgba(19, 46, 101, 0.5)" stroke-width="1.5"></path><path d="M824.51 376L962.39 399.53" stroke="rgba(19, 46, 101, 0.5)" stroke-width="1.5"></path><path d="M824.51 376L810.73 561.77" stroke="rgba(19, 46, 101, 0.5)" stroke-width="1.5"></path><path d="M824.51 376L1007.04 232.95" stroke="rgba(19, 46, 101, 0.5)" stroke-width="1.5"></path><path d="M810.73 561.77L810.73 561.77" stroke="rgba(19, 46, 101, 0.5)" stroke-width="1.5"></path><path d="M810.73 561.77L837.15 673.35" stroke="rgba(19, 46, 101, 0.5)" stroke-width="1.5"></path><path d="M837.15 673.35L837.15 673.35" stroke="rgba(19, 46, 101, 0.5)" stroke-width="1.5"></path><path d="M837.15 673.35L982.13 690.33" stroke="rgba(19, 46, 101, 0.5)" stroke-width="1.5"></path><path d="M837.15 673.35L973.99 554.63" stroke="rgba(19, 46, 101, 0.5)" stroke-width="1.5"></path><path d="M837.15 673.35L671.93 500.44" stroke="rgba(19, 46, 101, 0.5)" stroke-width="1.5"></path><path d="M837.15 673.35L1098.43 673.49" stroke="rgba(19, 46, 101, 0.5)" stroke-width="1.5"></path><path d="M837.15 673.35L824.51 376" stroke="rgba(19, 46, 101, 0.5)" stroke-width="1.5"></path><path d="M973.98 -107.55L973.98 -107.55" stroke="rgba(19, 46, 101, 0.5)" stroke-width="1.5"></path><path d="M973.98 -107.55L1105.84 -71.08" stroke="rgba(19, 46, 101, 0.5)" stroke-width="1.5"></path><path d="M973.98 -107.55L1008.83 67.29" stroke="rgba(19, 46, 101, 0.5)" stroke-width="1.5"></path><path d="M973.98 -107.55L1147.61 83.94" stroke="rgba(19, 46, 101, 0.5)" stroke-width="1.5"></path><path d="M1008.83 67.29L1008.83 67.29" stroke="rgba(19, 46, 101, 0.5)" stroke-width="1.5"></path><path d="M1008.83 67.29L1147.61 83.94" stroke="rgba(19, 46, 101, 0.5)" stroke-width="1.5"></path><path d="M1008.83 67.29L1007.04 232.95" stroke="rgba(19, 46, 101, 0.5)" stroke-width="1.5"></path><path d="M1008.83 67.29L1105.84 -71.08" stroke="rgba(19, 46, 101, 0.5)" stroke-width="1.5"></path><path d="M1008.83 67.29L1126.58 249.61" stroke="rgba(19, 46, 101, 0.5)" stroke-width="1.5"></path><path d="M1007.04 232.95L1007.04 232.95" stroke="rgba(19, 46, 101, 0.5)" stroke-width="1.5"></path><path d="M1007.04 232.95L1126.58 249.61" stroke="rgba(19, 46, 101, 0.5)" stroke-width="1.5"></path><path d="M1007.04 232.95L962.39 399.53" stroke="rgba(19, 46, 101, 0.5)" stroke-width="1.5"></path><path d="M1007.04 232.95L1161.6 367.01" stroke="rgba(19, 46, 101, 0.5)" stroke-width="1.5"></path><path d="M962.39 399.53L962.39 399.53" stroke="rgba(19, 46, 101, 0.5)" stroke-width="1.5"></path><path d="M962.39 399.53L973.99 554.63" stroke="rgba(19, 46, 101, 0.5)" stroke-width="1.5"></path><path d="M962.39 399.53L1161.6 367.01" stroke="rgba(19, 46, 101, 0.5)" stroke-width="1.5"></path><path d="M962.39 399.53L1110.81 553.95" stroke="rgba(19, 46, 101, 0.5)" stroke-width="1.5"></path><path d="M973.99 554.63L973.99 554.63" stroke="rgba(19, 46, 101, 0.5)" stroke-width="1.5"></path><path d="M973.99 554.63L982.13 690.33" stroke="rgba(19, 46, 101, 0.5)" stroke-width="1.5"></path><path d="M973.99 554.63L1110.81 553.95" stroke="rgba(19, 46, 101, 0.5)" stroke-width="1.5"></path><path d="M982.13 690.33L982.13 690.33" stroke="rgba(19, 46, 101, 0.5)" stroke-width="1.5"></path><path d="M982.13 690.33L1098.43 673.49" stroke="rgba(19, 46, 101, 0.5)" stroke-width="1.5"></path><path d="M1105.84 -71.08L1105.84 -71.08" stroke="rgba(19, 46, 101, 0.5)" stroke-width="1.5"></path><path d="M1147.61 83.94L1147.61 83.94" stroke="rgba(19, 46, 101, 0.5)" stroke-width="1.5"></path><path d="M1147.61 83.94L1296.76 42.59" stroke="rgba(19, 46, 101, 0.5)" stroke-width="1.5"></path><path d="M1147.61 83.94L1105.84 -71.08" stroke="rgba(19, 46, 101, 0.5)" stroke-width="1.5"></path><path d="M1126.58 249.61L1126.58 249.61" stroke="rgba(19, 46, 101, 0.5)" stroke-width="1.5"></path><path d="M1126.58 249.61L1161.6 367.01" stroke="rgba(19, 46, 101, 0.5)" stroke-width="1.5"></path><path d="M1161.6 367.01L1161.6 367.01" stroke="rgba(19, 46, 101, 0.5)" stroke-width="1.5"></path><path d="M1161.6 367.01L1259.79 359.82" stroke="rgba(19, 46, 101, 0.5)" stroke-width="1.5"></path><path d="M1161.6 367.01L1255.07 253.29" stroke="rgba(19, 46, 101, 0.5)" stroke-width="1.5"></path><path d="M1161.6 367.01L1283.77 489.87" stroke="rgba(19, 46, 101, 0.5)" stroke-width="1.5"></path><path d="M1161.6 367.01L1110.81 553.95" stroke="rgba(19, 46, 101, 0.5)" stroke-width="1.5"></path><path d="M1110.81 553.95L1110.81 553.95" stroke="rgba(19, 46, 101, 0.5)" stroke-width="1.5"></path><path d="M1110.81 553.95L1098.43 673.49" stroke="rgba(19, 46, 101, 0.5)" stroke-width="1.5"></path><path d="M1098.43 673.49L1098.43 673.49" stroke="rgba(19, 46, 101, 0.5)" stroke-width="1.5"></path><path d="M1300.83 -43.14L1300.83 -43.14" stroke="rgba(19, 46, 101, 0.5)" stroke-width="1.5"></path><path d="M1300.83 -43.14L1296.76 42.59" stroke="rgba(19, 46, 101, 0.5)" stroke-width="1.5"></path><path d="M1300.83 -43.14L1462.16 -53.37" stroke="rgba(19, 46, 101, 0.5)" stroke-width="1.5"></path><path d="M1300.83 -43.14L1105.84 -71.08" stroke="rgba(19, 46, 101, 0.5)" stroke-width="1.5"></path><path d="M1300.83 -43.14L1147.61 83.94" stroke="rgba(19, 46, 101, 0.5)" stroke-width="1.5"></path><path d="M1300.83 -43.14L1456.38 87.45" stroke="rgba(19, 46, 101, 0.5)" stroke-width="1.5"></path><path d="M1300.83 -43.14L1430.18 199.77" stroke="rgba(19, 46, 101, 0.5)" stroke-width="1.5"></path><path d="M1296.76 42.59L1296.76 42.59" stroke="rgba(19, 46, 101, 0.5)" stroke-width="1.5"></path><path d="M1296.76 42.59L1456.38 87.45" stroke="rgba(19, 46, 101, 0.5)" stroke-width="1.5"></path><path d="M1296.76 42.59L1462.16 -53.37" stroke="rgba(19, 46, 101, 0.5)" stroke-width="1.5"></path><path d="M1296.76 42.59L1430.18 199.77" stroke="rgba(19, 46, 101, 0.5)" stroke-width="1.5"></path><path d="M1296.76 42.59L1255.07 253.29" stroke="rgba(19, 46, 101, 0.5)" stroke-width="1.5"></path><path d="M1255.07 253.29L1255.07 253.29" stroke="rgba(19, 46, 101, 0.5)" stroke-width="1.5"></path><path d="M1255.07 253.29L1259.79 359.82" stroke="rgba(19, 46, 101, 0.5)" stroke-width="1.5"></path><path d="M1255.07 253.29L1126.58 249.61" stroke="rgba(19, 46, 101, 0.5)" stroke-width="1.5"></path><path d="M1259.79 359.82L1259.79 359.82" stroke="rgba(19, 46, 101, 0.5)" stroke-width="1.5"></path><path d="M1283.77 489.87L1283.77 489.87" stroke="rgba(19, 46, 101, 0.5)" stroke-width="1.5"></path><path d="M1283.77 489.87L1259.79 359.82" stroke="rgba(19, 46, 101, 0.5)" stroke-width="1.5"></path><path d="M1283.77 489.87L1404.3 545.8" stroke="rgba(19, 46, 101, 0.5)" stroke-width="1.5"></path><path d="M1462.16 -53.37L1462.16 -53.37" stroke="rgba(19, 46, 101, 0.5)" stroke-width="1.5"></path><path d="M1462.16 -53.37L1456.38 87.45" stroke="rgba(19, 46, 101, 0.5)" stroke-width="1.5"></path><path d="M1462.16 -53.37L1609.3 -37.6" stroke="rgba(19, 46, 101, 0.5)" stroke-width="1.5"></path><path d="M1462.16 -53.37L1597.54 107.5" stroke="rgba(19, 46, 101, 0.5)" stroke-width="1.5"></path><path d="M1456.38 87.45L1456.38 87.45" stroke="rgba(19, 46, 101, 0.5)" stroke-width="1.5"></path><path d="M1456.38 87.45L1430.18 199.77" stroke="rgba(19, 46, 101, 0.5)" stroke-width="1.5"></path><path d="M1456.38 87.45L1597.54 107.5" stroke="rgba(19, 46, 101, 0.5)" stroke-width="1.5"></path><path d="M1456.38 87.45L1545.44 208.85" stroke="rgba(19, 46, 101, 0.5)" stroke-width="1.5"></path><path d="M1430.18 199.77L1430.18 199.77" stroke="rgba(19, 46, 101, 0.5)" stroke-width="1.5"></path><path d="M1430.18 199.77L1545.44 208.85" stroke="rgba(19, 46, 101, 0.5)" stroke-width="1.5"></path><path d="M1443.91 406.83L1443.91 406.83" stroke="rgba(19, 46, 101, 0.5)" stroke-width="1.5"></path><path d="M1443.91 406.83L1539.4 382.97" stroke="rgba(19, 46, 101, 0.5)" stroke-width="1.5"></path><path d="M1443.91 406.83L1404.3 545.8" stroke="rgba(19, 46, 101, 0.5)" stroke-width="1.5"></path><path d="M1443.91 406.83L1558.24 511.89" stroke="rgba(19, 46, 101, 0.5)" stroke-width="1.5"></path><path d="M1443.91 406.83L1283.77 489.87" stroke="rgba(19, 46, 101, 0.5)" stroke-width="1.5"></path><path d="M1443.91 406.83L1259.79 359.82" stroke="rgba(19, 46, 101, 0.5)" stroke-width="1.5"></path><path d="M1443.91 406.83L1430.18 199.77" stroke="rgba(19, 46, 101, 0.5)" stroke-width="1.5"></path><path d="M1404.3 545.8L1404.3 545.8" stroke="rgba(19, 46, 101, 0.5)" stroke-width="1.5"></path><path d="M1404.3 545.8L1437.14 664.37" stroke="rgba(19, 46, 101, 0.5)" stroke-width="1.5"></path><path d="M1404.3 545.8L1558.24 511.89" stroke="rgba(19, 46, 101, 0.5)" stroke-width="1.5"></path><path d="M1404.3 545.8L1541.24 642.02" stroke="rgba(19, 46, 101, 0.5)" stroke-width="1.5"></path><path d="M1404.3 545.8L1539.4 382.97" stroke="rgba(19, 46, 101, 0.5)" stroke-width="1.5"></path><path d="M1437.14 664.37L1437.14 664.37" stroke="rgba(19, 46, 101, 0.5)" stroke-width="1.5"></path><path d="M1437.14 664.37L1541.24 642.02" stroke="rgba(19, 46, 101, 0.5)" stroke-width="1.5"></path><path d="M1609.3 -37.6L1609.3 -37.6" stroke="rgba(19, 46, 101, 0.5)" stroke-width="1.5"></path><path d="M1609.3 -37.6L1597.54 107.5" stroke="rgba(19, 46, 101, 0.5)" stroke-width="1.5"></path><path d="M1609.3 -37.6L1456.38 87.45" stroke="rgba(19, 46, 101, 0.5)" stroke-width="1.5"></path><path d="M1597.54 107.5L1597.54 107.5" stroke="rgba(19, 46, 101, 0.5)" stroke-width="1.5"></path><path d="M1597.54 107.5L1545.44 208.85" stroke="rgba(19, 46, 101, 0.5)" stroke-width="1.5"></path><path d="M1545.44 208.85L1545.44 208.85" stroke="rgba(19, 46, 101, 0.5)" stroke-width="1.5"></path><path d="M1545.44 208.85L1539.4 382.97" stroke="rgba(19, 46, 101, 0.5)" stroke-width="1.5"></path><path d="M1545.44 208.85L1443.91 406.83" stroke="rgba(19, 46, 101, 0.5)" stroke-width="1.5"></path><path d="M1545.44 208.85L1609.3 -37.6" stroke="rgba(19, 46, 101, 0.5)" stroke-width="1.5"></path><path d="M1539.4 382.97L1539.4 382.97" stroke="rgba(19, 46, 101, 0.5)" stroke-width="1.5"></path><path d="M1539.4 382.97L1558.24 511.89" stroke="rgba(19, 46, 101, 0.5)" stroke-width="1.5"></path><path d="M1539.4 382.97L1430.18 199.77" stroke="rgba(19, 46, 101, 0.5)" stroke-width="1.5"></path><path d="M1539.4 382.97L1541.24 642.02" stroke="rgba(19, 46, 101, 0.5)" stroke-width="1.5"></path><path d="M1558.24 511.89L1558.24 511.89" stroke="rgba(19, 46, 101, 0.5)" stroke-width="1.5"></path><path d="M1558.24 511.89L1541.24 642.02" stroke="rgba(19, 46, 101, 0.5)" stroke-width="1.5"></path><path d="M1558.24 511.89L1437.14 664.37" stroke="rgba(19, 46, 101, 0.5)" stroke-width="1.5"></path><path d="M1541.24 642.02L1541.24 642.02" stroke="rgba(19, 46, 101, 0.5)" stroke-width="1.5"></path><path d="M1541.24 642.02L1443.91 406.83" stroke="rgba(19, 46, 101, 0.5)" stroke-width="1.5"></path><circle r="5" cx="-106.52" cy="381.9" fill="rgba(19, 46, 101, 0.5)"></circle><circle r="5" cx="-39.79" cy="548.81" fill="rgba(19, 46, 101, 0.5)"></circle><circle r="5" cx="-95.02" cy="690.83" fill="rgba(19, 46, 101, 0.5)"></circle><circle r="5" cx="39.33" cy="368.92" fill="rgba(19, 46, 101, 0.5)"></circle><circle r="5" cx="60.36" cy="684.85" fill="rgba(19, 46, 101, 0.5)"></circle><circle r="5" cx="223.11" cy="406.58" fill="rgba(19, 46, 101, 0.5)"></circle><circle r="5" cx="225.66" cy="512.17" fill="rgba(19, 46, 101, 0.5)"></circle><circle r="5" cx="361.96" cy="408.08" fill="rgba(19, 46, 101, 0.5)"></circle><circle r="5" cx="362.73" cy="499" fill="rgba(19, 46, 101, 0.5)"></circle><circle r="5" cx="370.28" cy="647.79" fill="rgba(19, 46, 101, 0.5)"></circle><circle r="5" cx="514.7" cy="373.82" fill="rgba(19, 46, 101, 0.5)"></circle><circle r="5" cx="530.31" cy="522.08" fill="rgba(19, 46, 101, 0.5)"></circle><circle r="5" cx="513.3" cy="677.75" fill="rgba(19, 46, 101, 0.5)"></circle><circle r="5" cx="711.07" cy="361.23" fill="rgba(19, 46, 101, 0.5)"></circle><circle r="5" cx="671.93" cy="500.44" fill="rgba(19, 46, 101, 0.5)"></circle><circle r="5" cx="824.51" cy="376" fill="rgba(19, 46, 101, 0.5)"></circle><circle r="5" cx="810.73" cy="561.77" fill="rgba(19, 46, 101, 0.5)"></circle><circle r="5" cx="837.15" cy="673.35" fill="rgba(19, 46, 101, 0.5)"></circle><circle r="5" cx="973.98" cy="-107.55" fill="rgba(19, 46, 101, 0.5)"></circle><circle r="5" cx="1008.83" cy="67.29" fill="rgba(19, 46, 101, 0.5)"></circle><circle r="5" cx="1007.04" cy="232.95" fill="rgba(19, 46, 101, 0.5)"></circle><circle r="5" cx="962.39" cy="399.53" fill="rgba(19, 46, 101, 0.5)"></circle><circle r="5" cx="973.99" cy="554.63" fill="rgba(19, 46, 101, 0.5)"></circle><circle r="5" cx="982.13" cy="690.33" fill="rgba(19, 46, 101, 0.5)"></circle><circle r="5" cx="1105.84" cy="-71.08" fill="rgba(19, 46, 101, 0.5)"></circle><circle r="5" cx="1147.61" cy="83.94" fill="rgba(19, 46, 101, 0.5)"></circle><circle r="5" cx="1126.58" cy="249.61" fill="rgba(19, 46, 101, 0.5)"></circle><circle r="5" cx="1161.6" cy="367.01" fill="rgba(19, 46, 101, 0.5)"></circle><circle r="5" cx="1110.81" cy="553.95" fill="rgba(19, 46, 101, 0.5)"></circle><circle r="5" cx="1098.43" cy="673.49" fill="rgba(19, 46, 101, 0.5)"></circle><circle r="5" cx="1300.83" cy="-43.14" fill="rgba(19, 46, 101, 0.5)"></circle><circle r="5" cx="1296.76" cy="42.59" fill="rgba(19, 46, 101, 0.5)"></circle><circle r="5" cx="1255.07" cy="253.29" fill="rgba(19, 46, 101, 0.5)"></circle><circle r="5" cx="1259.79" cy="359.82" fill="rgba(19, 46, 101, 0.5)"></circle><circle r="5" cx="1283.77" cy="489.87" fill="rgba(19, 46, 101, 0.5)"></circle><circle r="5" cx="1462.16" cy="-53.37" fill="rgba(19, 46, 101, 0.5)"></circle><circle r="5" cx="1456.38" cy="87.45" fill="rgba(19, 46, 101, 0.5)"></circle><circle r="5" cx="1430.18" cy="199.77" fill="rgba(19, 46, 101, 0.5)"></circle><circle r="5" cx="1443.91" cy="406.83" fill="rgba(19, 46, 101, 0.5)"></circle><circle r="5" cx="1404.3" cy="545.8" fill="rgba(19, 46, 101, 0.5)"></circle><circle r="5" cx="1437.14" cy="664.37" fill="rgba(19, 46, 101, 0.5)"></circle><circle r="5" cx="1609.3" cy="-37.6" fill="rgba(19, 46, 101, 0.5)"></circle><circle r="5" cx="1597.54" cy="107.5" fill="rgba(19, 46, 101, 0.5)"></circle><circle r="5" cx="1545.44" cy="208.85" fill="rgba(19, 46, 101, 0.5)"></circle><circle r="5" cx="1539.4" cy="382.97" fill="rgba(19, 46, 101, 0.5)"></circle><circle r="5" cx="1558.24" cy="511.89" fill="rgba(19, 46, 101, 0.5)"></circle><circle r="5" cx="1541.24" cy="642.02" fill="rgba(19, 46, 101, 0.5)"></circle><path d="M521.11 695.22L521.11 695.22" stroke="hsla(228.5, 77.2%, 51.5%, 0.5)" stroke-width="1.5"></path><path d="M521.11 695.22L646.91 693.11" stroke="hsla(228.5, 77.2%, 51.5%, 0.5)" stroke-width="1.5"></path><path d="M521.11 695.22L519.72 553.15" stroke="hsla(228.5, 77.2%, 51.5%, 0.5)" stroke-width="1.5"></path><path d="M521.11 695.22L352.2 699.05" stroke="hsla(228.5, 77.2%, 51.5%, 0.5)" stroke-width="1.5"></path><path d="M521.11 695.22L232.66 645.2" stroke="hsla(228.5, 77.2%, 51.5%, 0.5)" stroke-width="1.5"></path><path d="M521.11 695.22L817.48 651.6" stroke="hsla(228.5, 77.2%, 51.5%, 0.5)" stroke-width="1.5"></path><path d="M702.55 368.82L702.55 368.82" stroke="hsla(228.5, 77.2%, 51.5%, 0.5)" stroke-width="1.5"></path><path d="M702.55 368.82L792.82 378.27" stroke="hsla(228.5, 77.2%, 51.5%, 0.5)" stroke-width="1.5"></path><path d="M702.55 368.82L859.24 502.95" stroke="hsla(228.5, 77.2%, 51.5%, 0.5)" stroke-width="1.5"></path><path d="M859.24 502.95L859.24 502.95" stroke="hsla(228.5, 77.2%, 51.5%, 0.5)" stroke-width="1.5"></path><path d="M859.24 502.95L937.55 546.56" stroke="hsla(228.5, 77.2%, 51.5%, 0.5)" stroke-width="1.5"></path><path d="M859.24 502.95L792.82 378.27" stroke="hsla(228.5, 77.2%, 51.5%, 0.5)" stroke-width="1.5"></path><path d="M817.48 651.6L817.48 651.6" stroke="hsla(228.5, 77.2%, 51.5%, 0.5)" stroke-width="1.5"></path><path d="M817.48 651.6L859.24 502.95" stroke="hsla(228.5, 77.2%, 51.5%, 0.5)" stroke-width="1.5"></path><path d="M817.48 651.6L937.55 546.56" stroke="hsla(228.5, 77.2%, 51.5%, 0.5)" stroke-width="1.5"></path><path d="M817.48 651.6L646.91 693.11" stroke="hsla(228.5, 77.2%, 51.5%, 0.5)" stroke-width="1.5"></path><path d="M817.48 651.6L1010.47 659.21" stroke="hsla(228.5, 77.2%, 51.5%, 0.5)" stroke-width="1.5"></path><path d="M1009.85 256.48L1009.85 256.48" stroke="hsla(228.5, 77.2%, 51.5%, 0.5)" stroke-width="1.5"></path><path d="M1009.85 256.48L950.84 338.76" stroke="hsla(228.5, 77.2%, 51.5%, 0.5)" stroke-width="1.5"></path><path d="M1009.85 256.48L1125.82 253.77" stroke="hsla(228.5, 77.2%, 51.5%, 0.5)" stroke-width="1.5"></path><path d="M1009.85 256.48L1095.21 381.24" stroke="hsla(228.5, 77.2%, 51.5%, 0.5)" stroke-width="1.5"></path><path d="M1009.85 256.48L792.82 378.27" stroke="hsla(228.5, 77.2%, 51.5%, 0.5)" stroke-width="1.5"></path><path d="M1009.85 256.48L1292.12 218.8" stroke="hsla(228.5, 77.2%, 51.5%, 0.5)" stroke-width="1.5"></path><path d="M950.84 338.76L950.84 338.76" stroke="hsla(228.5, 77.2%, 51.5%, 0.5)" stroke-width="1.5"></path><path d="M950.84 338.76L1095.21 381.24" stroke="hsla(228.5, 77.2%, 51.5%, 0.5)" stroke-width="1.5"></path><path d="M950.84 338.76L792.82 378.27" stroke="hsla(228.5, 77.2%, 51.5%, 0.5)" stroke-width="1.5"></path><path d="M950.84 338.76L859.24 502.95" stroke="hsla(228.5, 77.2%, 51.5%, 0.5)" stroke-width="1.5"></path><path d="M950.84 338.76L1125.82 253.77" stroke="hsla(228.5, 77.2%, 51.5%, 0.5)" stroke-width="1.5"></path><path d="M1263.93 103.73L1263.93 103.73" stroke="hsla(228.5, 77.2%, 51.5%, 0.5)" stroke-width="1.5"></path><path d="M1263.93 103.73L1292.12 218.8" stroke="hsla(228.5, 77.2%, 51.5%, 0.5)" stroke-width="1.5"></path><path d="M1263.93 103.73L1402.2 68.6" stroke="hsla(228.5, 77.2%, 51.5%, 0.5)" stroke-width="1.5"></path><path d="M1263.93 103.73L1427.88 220.08" stroke="hsla(228.5, 77.2%, 51.5%, 0.5)" stroke-width="1.5"></path><path d="M1263.93 103.73L1125.82 253.77" stroke="hsla(228.5, 77.2%, 51.5%, 0.5)" stroke-width="1.5"></path><path d="M1263.93 103.73L1245.89 -102.05" stroke="hsla(228.5, 77.2%, 51.5%, 0.5)" stroke-width="1.5"></path><path d="M1263.93 103.73L1416.47 -77.41" stroke="hsla(228.5, 77.2%, 51.5%, 0.5)" stroke-width="1.5"></path><path d="M1268.7 665.11L1268.7 665.11" stroke="hsla(228.5, 77.2%, 51.5%, 0.5)" stroke-width="1.5"></path><path d="M1268.7 665.11L1287.35 559.65" stroke="hsla(228.5, 77.2%, 51.5%, 0.5)" stroke-width="1.5"></path><path d="M1268.7 665.11L1136.36 709.28" stroke="hsla(228.5, 77.2%, 51.5%, 0.5)" stroke-width="1.5"></path><path d="M1268.7 665.11L1435.2 646.94" stroke="hsla(228.5, 77.2%, 51.5%, 0.5)" stroke-width="1.5"></path><path d="M1268.7 665.11L1124.54 561.5" stroke="hsla(228.5, 77.2%, 51.5%, 0.5)" stroke-width="1.5"></path><path d="M1268.7 665.11L1396.84 536.07" stroke="hsla(228.5, 77.2%, 51.5%, 0.5)" stroke-width="1.5"></path><path d="M1562.96 406.91L1562.96 406.91" stroke="hsla(228.5, 77.2%, 51.5%, 0.5)" stroke-width="1.5"></path><path d="M1562.96 406.91L1579.92 504.64" stroke="hsla(228.5, 77.2%, 51.5%, 0.5)" stroke-width="1.5"></path><path d="M1562.96 406.91L1411.44 358.75" stroke="hsla(228.5, 77.2%, 51.5%, 0.5)" stroke-width="1.5"></path><path d="M1579.92 504.64L1579.92 504.64" stroke="hsla(228.5, 77.2%, 51.5%, 0.5)" stroke-width="1.5"></path><path d="M1579.92 504.64L1578.77 638.5" stroke="hsla(228.5, 77.2%, 51.5%, 0.5)" stroke-width="1.5"></path><path d="M1579.92 504.64L1396.84 536.07" stroke="hsla(228.5, 77.2%, 51.5%, 0.5)" stroke-width="1.5"></path><path d="M1579.92 504.64L1435.2 646.94" stroke="hsla(228.5, 77.2%, 51.5%, 0.5)" stroke-width="1.5"></path><path d="M-57.65 494.41L-57.65 494.41" stroke="hsla(228.5, 77.2%, 51.5%, 0.5)" stroke-width="1.5"></path><path d="M-57.65 494.41L59.77 531.62" stroke="hsla(228.5, 77.2%, 51.5%, 0.5)" stroke-width="1.5"></path><path d="M-57.65 494.41L-67.7 679.83" stroke="hsla(228.5, 77.2%, 51.5%, 0.5)" stroke-width="1.5"></path><path d="M-67.7 679.83L-67.7 679.83" stroke="hsla(228.5, 77.2%, 51.5%, 0.5)" stroke-width="1.5"></path><path d="M-67.7 679.83L75.83 662.74" stroke="hsla(228.5, 77.2%, 51.5%, 0.5)" stroke-width="1.5"></path><path d="M59.77 531.62L59.77 531.62" stroke="hsla(228.5, 77.2%, 51.5%, 0.5)" stroke-width="1.5"></path><path d="M59.77 531.62L75.83 662.74" stroke="hsla(228.5, 77.2%, 51.5%, 0.5)" stroke-width="1.5"></path><path d="M59.77 531.62L-67.7 679.83" stroke="hsla(228.5, 77.2%, 51.5%, 0.5)" stroke-width="1.5"></path><path d="M59.77 531.62L232.66 645.2" stroke="hsla(228.5, 77.2%, 51.5%, 0.5)" stroke-width="1.5"></path><path d="M59.77 531.62L352.2 699.05" stroke="hsla(228.5, 77.2%, 51.5%, 0.5)" stroke-width="1.5"></path><path d="M75.83 662.74L75.83 662.74" stroke="hsla(228.5, 77.2%, 51.5%, 0.5)" stroke-width="1.5"></path><path d="M75.83 662.74L232.66 645.2" stroke="hsla(228.5, 77.2%, 51.5%, 0.5)" stroke-width="1.5"></path><path d="M232.66 645.2L232.66 645.2" stroke="hsla(228.5, 77.2%, 51.5%, 0.5)" stroke-width="1.5"></path><path d="M232.66 645.2L352.2 699.05" stroke="hsla(228.5, 77.2%, 51.5%, 0.5)" stroke-width="1.5"></path><path d="M232.66 645.2L519.72 553.15" stroke="hsla(228.5, 77.2%, 51.5%, 0.5)" stroke-width="1.5"></path><path d="M352.2 699.05L352.2 699.05" stroke="hsla(228.5, 77.2%, 51.5%, 0.5)" stroke-width="1.5"></path><path d="M352.2 699.05L519.72 553.15" stroke="hsla(228.5, 77.2%, 51.5%, 0.5)" stroke-width="1.5"></path><path d="M352.2 699.05L75.83 662.74" stroke="hsla(228.5, 77.2%, 51.5%, 0.5)" stroke-width="1.5"></path><path d="M519.72 553.15L519.72 553.15" stroke="hsla(228.5, 77.2%, 51.5%, 0.5)" stroke-width="1.5"></path><path d="M519.72 553.15L646.91 693.11" stroke="hsla(228.5, 77.2%, 51.5%, 0.5)" stroke-width="1.5"></path><path d="M646.91 693.11L646.91 693.11" stroke="hsla(228.5, 77.2%, 51.5%, 0.5)" stroke-width="1.5"></path><path d="M646.91 693.11L859.24 502.95" stroke="hsla(228.5, 77.2%, 51.5%, 0.5)" stroke-width="1.5"></path><path d="M792.82 378.27L792.82 378.27" stroke="hsla(228.5, 77.2%, 51.5%, 0.5)" stroke-width="1.5"></path><path d="M792.82 378.27L937.55 546.56" stroke="hsla(228.5, 77.2%, 51.5%, 0.5)" stroke-width="1.5"></path><path d="M792.82 378.27L817.48 651.6" stroke="hsla(228.5, 77.2%, 51.5%, 0.5)" stroke-width="1.5"></path><path d="M937.55 546.56L937.55 546.56" stroke="hsla(228.5, 77.2%, 51.5%, 0.5)" stroke-width="1.5"></path><path d="M937.55 546.56L1010.47 659.21" stroke="hsla(228.5, 77.2%, 51.5%, 0.5)" stroke-width="1.5"></path><path d="M1010.47 659.21L1010.47 659.21" stroke="hsla(228.5, 77.2%, 51.5%, 0.5)" stroke-width="1.5"></path><path d="M1010.47 659.21L1136.36 709.28" stroke="hsla(228.5, 77.2%, 51.5%, 0.5)" stroke-width="1.5"></path><path d="M1010.47 659.21L1124.54 561.5" stroke="hsla(228.5, 77.2%, 51.5%, 0.5)" stroke-width="1.5"></path><path d="M1125.82 253.77L1125.82 253.77" stroke="hsla(228.5, 77.2%, 51.5%, 0.5)" stroke-width="1.5"></path><path d="M1095.21 381.24L1095.21 381.24" stroke="hsla(228.5, 77.2%, 51.5%, 0.5)" stroke-width="1.5"></path><path d="M1095.21 381.24L1125.82 253.77" stroke="hsla(228.5, 77.2%, 51.5%, 0.5)" stroke-width="1.5"></path><path d="M1095.21 381.24L1276.56 381.43" stroke="hsla(228.5, 77.2%, 51.5%, 0.5)" stroke-width="1.5"></path><path d="M1095.21 381.24L1124.54 561.5" stroke="hsla(228.5, 77.2%, 51.5%, 0.5)" stroke-width="1.5"></path><path d="M1124.54 561.5L1124.54 561.5" stroke="hsla(228.5, 77.2%, 51.5%, 0.5)" stroke-width="1.5"></path><path d="M1124.54 561.5L1136.36 709.28" stroke="hsla(228.5, 77.2%, 51.5%, 0.5)" stroke-width="1.5"></path><path d="M1136.36 709.28L1136.36 709.28" stroke="hsla(228.5, 77.2%, 51.5%, 0.5)" stroke-width="1.5"></path><path d="M1245.89 -102.05L1245.89 -102.05" stroke="hsla(228.5, 77.2%, 51.5%, 0.5)" stroke-width="1.5"></path><path d="M1245.89 -102.05L1416.47 -77.41" stroke="hsla(228.5, 77.2%, 51.5%, 0.5)" stroke-width="1.5"></path><path d="M1245.89 -102.05L1402.2 68.6" stroke="hsla(228.5, 77.2%, 51.5%, 0.5)" stroke-width="1.5"></path><path d="M1245.89 -102.05L1292.12 218.8" stroke="hsla(228.5, 77.2%, 51.5%, 0.5)" stroke-width="1.5"></path><path d="M1245.89 -102.05L1593.52 -86.58" stroke="hsla(228.5, 77.2%, 51.5%, 0.5)" stroke-width="1.5"></path><path d="M1292.12 218.8L1292.12 218.8" stroke="hsla(228.5, 77.2%, 51.5%, 0.5)" stroke-width="1.5"></path><path d="M1292.12 218.8L1427.88 220.08" stroke="hsla(228.5, 77.2%, 51.5%, 0.5)" stroke-width="1.5"></path><path d="M1292.12 218.8L1276.56 381.43" stroke="hsla(228.5, 77.2%, 51.5%, 0.5)" stroke-width="1.5"></path><path d="M1292.12 218.8L1125.82 253.77" stroke="hsla(228.5, 77.2%, 51.5%, 0.5)" stroke-width="1.5"></path><path d="M1292.12 218.8L1411.44 358.75" stroke="hsla(228.5, 77.2%, 51.5%, 0.5)" stroke-width="1.5"></path><path d="M1276.56 381.43L1276.56 381.43" stroke="hsla(228.5, 77.2%, 51.5%, 0.5)" stroke-width="1.5"></path><path d="M1276.56 381.43L1411.44 358.75" stroke="hsla(228.5, 77.2%, 51.5%, 0.5)" stroke-width="1.5"></path><path d="M1287.35 559.65L1287.35 559.65" stroke="hsla(228.5, 77.2%, 51.5%, 0.5)" stroke-width="1.5"></path><path d="M1287.35 559.65L1396.84 536.07" stroke="hsla(228.5, 77.2%, 51.5%, 0.5)" stroke-width="1.5"></path><path d="M1287.35 559.65L1124.54 561.5" stroke="hsla(228.5, 77.2%, 51.5%, 0.5)" stroke-width="1.5"></path><path d="M1287.35 559.65L1435.2 646.94" stroke="hsla(228.5, 77.2%, 51.5%, 0.5)" stroke-width="1.5"></path><path d="M1416.47 -77.41L1416.47 -77.41" stroke="hsla(228.5, 77.2%, 51.5%, 0.5)" stroke-width="1.5"></path><path d="M1416.47 -77.41L1402.2 68.6" stroke="hsla(228.5, 77.2%, 51.5%, 0.5)" stroke-width="1.5"></path><path d="M1416.47 -77.41L1593.52 -86.58" stroke="hsla(228.5, 77.2%, 51.5%, 0.5)" stroke-width="1.5"></path><path d="M1416.47 -77.41L1544.77 90.76" stroke="hsla(228.5, 77.2%, 51.5%, 0.5)" stroke-width="1.5"></path><path d="M1402.2 68.6L1402.2 68.6" stroke="hsla(228.5, 77.2%, 51.5%, 0.5)" stroke-width="1.5"></path><path d="M1402.2 68.6L1544.77 90.76" stroke="hsla(228.5, 77.2%, 51.5%, 0.5)" stroke-width="1.5"></path><path d="M1402.2 68.6L1427.88 220.08" stroke="hsla(228.5, 77.2%, 51.5%, 0.5)" stroke-width="1.5"></path><path d="M1402.2 68.6L1292.12 218.8" stroke="hsla(228.5, 77.2%, 51.5%, 0.5)" stroke-width="1.5"></path><path d="M1402.2 68.6L1575.55 207.07" stroke="hsla(228.5, 77.2%, 51.5%, 0.5)" stroke-width="1.5"></path><path d="M1427.88 220.08L1427.88 220.08" stroke="hsla(228.5, 77.2%, 51.5%, 0.5)" stroke-width="1.5"></path><path d="M1427.88 220.08L1411.44 358.75" stroke="hsla(228.5, 77.2%, 51.5%, 0.5)" stroke-width="1.5"></path><path d="M1411.44 358.75L1411.44 358.75" stroke="hsla(228.5, 77.2%, 51.5%, 0.5)" stroke-width="1.5"></path><path d="M1411.44 358.75L1396.84 536.07" stroke="hsla(228.5, 77.2%, 51.5%, 0.5)" stroke-width="1.5"></path><path d="M1396.84 536.07L1396.84 536.07" stroke="hsla(228.5, 77.2%, 51.5%, 0.5)" stroke-width="1.5"></path><path d="M1396.84 536.07L1435.2 646.94" stroke="hsla(228.5, 77.2%, 51.5%, 0.5)" stroke-width="1.5"></path><path d="M1396.84 536.07L1276.56 381.43" stroke="hsla(228.5, 77.2%, 51.5%, 0.5)" stroke-width="1.5"></path><path d="M1435.2 646.94L1435.2 646.94" stroke="hsla(228.5, 77.2%, 51.5%, 0.5)" stroke-width="1.5"></path><path d="M1435.2 646.94L1578.77 638.5" stroke="hsla(228.5, 77.2%, 51.5%, 0.5)" stroke-width="1.5"></path><path d="M1435.2 646.94L1562.96 406.91" stroke="hsla(228.5, 77.2%, 51.5%, 0.5)" stroke-width="1.5"></path><path d="M1593.52 -86.58L1593.52 -86.58" stroke="hsla(228.5, 77.2%, 51.5%, 0.5)" stroke-width="1.5"></path><path d="M1593.52 -86.58L1544.77 90.76" stroke="hsla(228.5, 77.2%, 51.5%, 0.5)" stroke-width="1.5"></path><path d="M1593.52 -86.58L1402.2 68.6" stroke="hsla(228.5, 77.2%, 51.5%, 0.5)" stroke-width="1.5"></path><path d="M1593.52 -86.58L1575.55 207.07" stroke="hsla(228.5, 77.2%, 51.5%, 0.5)" stroke-width="1.5"></path><path d="M1544.77 90.76L1544.77 90.76" stroke="hsla(228.5, 77.2%, 51.5%, 0.5)" stroke-width="1.5"></path><path d="M1544.77 90.76L1575.55 207.07" stroke="hsla(228.5, 77.2%, 51.5%, 0.5)" stroke-width="1.5"></path><path d="M1544.77 90.76L1427.88 220.08" stroke="hsla(228.5, 77.2%, 51.5%, 0.5)" stroke-width="1.5"></path><path d="M1544.77 90.76L1263.93 103.73" stroke="hsla(228.5, 77.2%, 51.5%, 0.5)" stroke-width="1.5"></path><path d="M1575.55 207.07L1575.55 207.07" stroke="hsla(228.5, 77.2%, 51.5%, 0.5)" stroke-width="1.5"></path><path d="M1575.55 207.07L1427.88 220.08" stroke="hsla(228.5, 77.2%, 51.5%, 0.5)" stroke-width="1.5"></path><path d="M1575.55 207.07L1562.96 406.91" stroke="hsla(228.5, 77.2%, 51.5%, 0.5)" stroke-width="1.5"></path><path d="M1578.77 638.5L1578.77 638.5" stroke="hsla(228.5, 77.2%, 51.5%, 0.5)" stroke-width="1.5"></path><path d="M1578.77 638.5L1396.84 536.07" stroke="hsla(228.5, 77.2%, 51.5%, 0.5)" stroke-width="1.5"></path><path d="M1578.77 638.5L1562.96 406.91" stroke="hsla(228.5, 77.2%, 51.5%, 0.5)" stroke-width="1.5"></path><path d="M1578.77 638.5L1287.35 559.65" stroke="hsla(228.5, 77.2%, 51.5%, 0.5)" stroke-width="1.5"></path><path d="M1578.77 638.5L1268.7 665.11" stroke="hsla(228.5, 77.2%, 51.5%, 0.5)" stroke-width="1.5"></path><circle r="25" cx="521.11" cy="695.22" fill="url(#SvgjsRadialGradient1049)"></circle><circle r="25" cx="702.55" cy="368.82" fill="url(#SvgjsRadialGradient1049)"></circle><circle r="25" cx="859.24" cy="502.95" fill="url(#SvgjsRadialGradient1049)"></circle><circle r="25" cx="817.48" cy="651.6" fill="url(#SvgjsRadialGradient1049)"></circle><circle r="25" cx="1009.85" cy="256.48" fill="url(#SvgjsRadialGradient1049)"></circle><circle r="25" cx="950.84" cy="338.76" fill="url(#SvgjsRadialGradient1049)"></circle><circle r="25" cx="1263.93" cy="103.73" fill="url(#SvgjsRadialGradient1049)"></circle><circle r="25" cx="1268.7" cy="665.11" fill="url(#SvgjsRadialGradient1049)"></circle><circle r="25" cx="1562.96" cy="406.91" fill="url(#SvgjsRadialGradient1049)"></circle><circle r="25" cx="1579.92" cy="504.64" fill="url(#SvgjsRadialGradient1049)"></circle><circle r="5" cx="-57.65" cy="494.41" fill="rgba(197, 205, 236, 0.75)"></circle><circle r="5" cx="-67.7" cy="679.83" fill="rgba(197, 205, 236, 0.75)"></circle><circle r="5" cx="59.77" cy="531.62" fill="rgba(197, 205, 236, 0.75)"></circle><circle r="5" cx="75.83" cy="662.74" fill="rgba(197, 205, 236, 0.75)"></circle><circle r="5" cx="232.66" cy="645.2" fill="rgba(197, 205, 236, 0.75)"></circle><circle r="5" cx="352.2" cy="699.05" fill="rgba(197, 205, 236, 0.75)"></circle><circle r="5" cx="519.72" cy="553.15" fill="rgba(197, 205, 236, 0.75)"></circle><circle r="5" cx="646.91" cy="693.11" fill="rgba(197, 205, 236, 0.75)"></circle><circle r="5" cx="792.82" cy="378.27" fill="rgba(197, 205, 236, 0.75)"></circle><circle r="5" cx="937.55" cy="546.56" fill="rgba(197, 205, 236, 0.75)"></circle><circle r="5" cx="1010.47" cy="659.21" fill="rgba(197, 205, 236, 0.75)"></circle><circle r="5" cx="1125.82" cy="253.77" fill="rgba(197, 205, 236, 0.75)"></circle><circle r="5" cx="1095.21" cy="381.24" fill="rgba(197, 205, 236, 0.75)"></circle><circle r="5" cx="1124.54" cy="561.5" fill="rgba(197, 205, 236, 0.75)"></circle><circle r="5" cx="1136.36" cy="709.28" fill="rgba(197, 205, 236, 0.75)"></circle><circle r="5" cx="1245.89" cy="-102.05" fill="rgba(197, 205, 236, 0.75)"></circle><circle r="5" cx="1292.12" cy="218.8" fill="rgba(197, 205, 236, 0.75)"></circle><circle r="5" cx="1276.56" cy="381.43" fill="rgba(197, 205, 236, 0.75)"></circle><circle r="5" cx="1287.35" cy="559.65" fill="rgba(197, 205, 236, 0.75)"></circle><circle r="5" cx="1416.47" cy="-77.41" fill="rgba(197, 205, 236, 0.75)"></circle><circle r="5" cx="1402.2" cy="68.6" fill="rgba(197, 205, 236, 0.75)"></circle><circle r="5" cx="1427.88" cy="220.08" fill="rgba(197, 205, 236, 0.75)"></circle><circle r="5" cx="1411.44" cy="358.75" fill="rgba(197, 205, 236, 0.75)"></circle><circle r="5" cx="1396.84" cy="536.07" fill="rgba(197, 205, 236, 0.75)"></circle><circle r="5" cx="1435.2" cy="646.94" fill="rgba(197, 205, 236, 0.75)"></circle><circle r="5" cx="1593.52" cy="-86.58" fill="rgba(197, 205, 236, 0.75)"></circle><circle r="5" cx="1544.77" cy="90.76" fill="rgba(197, 205, 236, 0.75)"></circle><circle r="5" cx="1575.55" cy="207.07" fill="rgba(197, 205, 236, 0.75)"></circle><circle r="5" cx="1578.77" cy="638.5" fill="rgba(197, 205, 236, 0.75)"></circle></g><defs><mask id="SvgjsMask1048"><rect width="1440" height="560" fill="#ffffff"></rect></mask><radialGradient id="SvgjsRadialGradient1049"><stop stop-color="#ffffff" offset="0.1"></stop><stop stop-color="rgba(23, 53, 179, 0.5)" offset="0.2"></stop><stop stop-color="rgba(23, 53, 179, 0)" offset="1"></stop></radialGradient></defs></svg>