<svg xmlns="http://www.w3.org/2000/svg" version="1.1" xmlns:xlink="http://www.w3.org/1999/xlink" xmlns:svgjs="http://svgjs.com/svgjs" width="1440" height="560" preserveAspectRatio="none" viewBox="0 0 1440 560"><g mask="url(&quot;#SvgjsMask1129&quot;)" fill="none"><path d="M18.22 444.86L83.17 482.36L83.17 557.36L18.22 594.86L-46.73 557.36L-46.73 482.36zM148.13 -5.14L213.08 32.36L213.08 107.36L148.13 144.86L83.17 107.36L83.17 32.36zM213.08 107.36L278.03 144.86L278.03 219.86L213.08 257.36L148.13 219.86L148.13 144.86zM213.08 332.36L278.03 369.86L278.03 444.86L213.08 482.36L148.13 444.86L148.13 369.86zM213.08 557.36L278.03 594.86L278.03 669.86L213.08 707.36L148.13 669.86L148.13 594.86zM278.03 -5.14L342.99 32.36L342.99 107.36L278.03 144.86L213.08 107.36L213.08 32.36zM342.99 332.36L407.94 369.86L407.94 444.86L342.99 482.36L278.03 444.86L278.03 369.86zM278.03 444.86L342.99 482.36L342.99 557.36L278.03 594.86L213.08 557.36L213.08 482.36zM472.9 332.36L537.85 369.86L537.85 444.86L472.9 482.36L407.94 444.86L407.94 369.86zM472.9 557.36L537.85 594.86L537.85 669.86L472.9 707.36L407.94 669.86L407.94 594.86zM602.8 107.36L667.76 144.86L667.76 219.86L602.8 257.36L537.85 219.86L537.85 144.86zM602.8 332.36L667.76 369.86L667.76 444.86L602.8 482.36L537.85 444.86L537.85 369.86zM667.76 -5.14L732.71 32.36L732.71 107.36L667.76 144.86L602.8 107.36L602.8 32.36zM732.71 107.36L797.67 144.86L797.67 219.86L732.71 257.36L667.76 219.86L667.76 144.86zM667.76 219.86L732.71 257.36L732.71 332.36L667.76 369.86L602.8 332.36L602.8 257.36zM732.71 332.36L797.67 369.86L797.67 444.86L732.71 482.36L667.76 444.86L667.76 369.86zM732.71 557.36L797.67 594.86L797.67 669.86L732.71 707.36L667.76 669.86L667.76 594.86zM797.66 -5.14L862.62 32.36L862.62 107.36L797.66 144.86L732.71 107.36L732.71 32.36zM797.66 219.86L862.62 257.36L862.62 332.36L797.66 369.86L732.71 332.36L732.71 257.36zM797.66 444.86L862.62 482.36L862.62 557.36L797.66 594.86L732.71 557.36L732.71 482.36zM862.62 557.36L927.57 594.86L927.57 669.86L862.62 707.36L797.66 669.86L797.66 594.86zM927.57 444.86L992.53 482.36L992.53 557.36L927.57 594.86L862.62 557.36L862.62 482.36zM1122.43 557.36L1187.39 594.86L1187.39 669.86L1122.43 707.36L1057.48 669.86L1057.48 594.86zM1252.34 107.36L1317.29 144.86L1317.29 219.86L1252.34 257.36L1187.39 219.86L1187.39 144.86zM1187.39 219.86L1252.34 257.36L1252.34 332.36L1187.39 369.86L1122.43 332.36L1122.43 257.36zM1187.39 444.86L1252.34 482.36L1252.34 557.36L1187.39 594.86L1122.43 557.36L1122.43 482.36zM1382.25 107.36L1447.2 144.86L1447.2 219.86L1382.25 257.36L1317.3 219.86L1317.3 144.86zM1317.3 219.86L1382.25 257.36L1382.25 332.36L1317.3 369.86L1252.34 332.36L1252.34 257.36zM1317.3 444.86L1382.25 482.36L1382.25 557.36L1317.3 594.86L1252.34 557.36L1252.34 482.36zM1382.25 557.36L1447.2 594.86L1447.2 669.86L1382.25 707.36L1317.3 669.86L1317.3 594.86zM1447.2 -5.14L1512.16 32.36L1512.16 107.36L1447.2 144.86L1382.25 107.36L1382.25 32.36zM1512.16 332.36L1577.11 369.86L1577.11 444.86L1512.16 482.36L1447.2 444.86L1447.2 369.86zM1512.16 557.36L1577.11 594.86L1577.11 669.86L1512.16 707.36L1447.2 669.86L1447.2 594.86z" stroke="rgba(0, 141, 255, 0.3)" stroke-width="2"></path><path d="M10.72 444.86 a7.5 7.5 0 1 0 15 0 a7.5 7.5 0 1 0 -15 0zM75.67 482.36 a7.5 7.5 0 1 0 15 0 a7.5 7.5 0 1 0 -15 0zM75.67 557.36 a7.5 7.5 0 1 0 15 0 a7.5 7.5 0 1 0 -15 0zM10.72 594.86 a7.5 7.5 0 1 0 15 0 a7.5 7.5 0 1 0 -15 0zM-54.23 557.36 a7.5 7.5 0 1 0 15 0 a7.5 7.5 0 1 0 -15 0zM-54.23 482.36 a7.5 7.5 0 1 0 15 0 a7.5 7.5 0 1 0 -15 0zM140.63 -5.14 a7.5 7.5 0 1 0 15 0 a7.5 7.5 0 1 0 -15 0zM205.58 32.36 a7.5 7.5 0 1 0 15 0 a7.5 7.5 0 1 0 -15 0zM205.58 107.36 a7.5 7.5 0 1 0 15 0 a7.5 7.5 0 1 0 -15 0zM140.63 144.86 a7.5 7.5 0 1 0 15 0 a7.5 7.5 0 1 0 -15 0zM75.67 107.36 a7.5 7.5 0 1 0 15 0 a7.5 7.5 0 1 0 -15 0zM75.67 32.36 a7.5 7.5 0 1 0 15 0 a7.5 7.5 0 1 0 -15 0zM270.53 144.86 a7.5 7.5 0 1 0 15 0 a7.5 7.5 0 1 0 -15 0zM270.53 219.86 a7.5 7.5 0 1 0 15 0 a7.5 7.5 0 1 0 -15 0zM205.58 257.36 a7.5 7.5 0 1 0 15 0 a7.5 7.5 0 1 0 -15 0zM140.63 219.86 a7.5 7.5 0 1 0 15 0 a7.5 7.5 0 1 0 -15 0zM205.58 332.36 a7.5 7.5 0 1 0 15 0 a7.5 7.5 0 1 0 -15 0zM270.53 369.86 a7.5 7.5 0 1 0 15 0 a7.5 7.5 0 1 0 -15 0zM270.53 444.86 a7.5 7.5 0 1 0 15 0 a7.5 7.5 0 1 0 -15 0zM205.58 482.36 a7.5 7.5 0 1 0 15 0 a7.5 7.5 0 1 0 -15 0zM140.63 444.86 a7.5 7.5 0 1 0 15 0 a7.5 7.5 0 1 0 -15 0zM140.63 369.86 a7.5 7.5 0 1 0 15 0 a7.5 7.5 0 1 0 -15 0zM205.58 557.36 a7.5 7.5 0 1 0 15 0 a7.5 7.5 0 1 0 -15 0zM270.53 594.86 a7.5 7.5 0 1 0 15 0 a7.5 7.5 0 1 0 -15 0zM270.53 669.86 a7.5 7.5 0 1 0 15 0 a7.5 7.5 0 1 0 -15 0zM205.58 707.36 a7.5 7.5 0 1 0 15 0 a7.5 7.5 0 1 0 -15 0zM140.63 669.86 a7.5 7.5 0 1 0 15 0 a7.5 7.5 0 1 0 -15 0zM140.63 594.86 a7.5 7.5 0 1 0 15 0 a7.5 7.5 0 1 0 -15 0zM270.53 -5.14 a7.5 7.5 0 1 0 15 0 a7.5 7.5 0 1 0 -15 0zM335.49 32.36 a7.5 7.5 0 1 0 15 0 a7.5 7.5 0 1 0 -15 0zM335.49 107.36 a7.5 7.5 0 1 0 15 0 a7.5 7.5 0 1 0 -15 0zM335.49 332.36 a7.5 7.5 0 1 0 15 0 a7.5 7.5 0 1 0 -15 0zM400.44 369.86 a7.5 7.5 0 1 0 15 0 a7.5 7.5 0 1 0 -15 0zM400.44 444.86 a7.5 7.5 0 1 0 15 0 a7.5 7.5 0 1 0 -15 0zM335.49 482.36 a7.5 7.5 0 1 0 15 0 a7.5 7.5 0 1 0 -15 0zM335.49 557.36 a7.5 7.5 0 1 0 15 0 a7.5 7.5 0 1 0 -15 0zM465.4 332.36 a7.5 7.5 0 1 0 15 0 a7.5 7.5 0 1 0 -15 0zM530.35 369.86 a7.5 7.5 0 1 0 15 0 a7.5 7.5 0 1 0 -15 0zM530.35 444.86 a7.5 7.5 0 1 0 15 0 a7.5 7.5 0 1 0 -15 0zM465.4 482.36 a7.5 7.5 0 1 0 15 0 a7.5 7.5 0 1 0 -15 0zM465.4 557.36 a7.5 7.5 0 1 0 15 0 a7.5 7.5 0 1 0 -15 0zM530.35 594.86 a7.5 7.5 0 1 0 15 0 a7.5 7.5 0 1 0 -15 0zM530.35 669.86 a7.5 7.5 0 1 0 15 0 a7.5 7.5 0 1 0 -15 0zM465.4 707.36 a7.5 7.5 0 1 0 15 0 a7.5 7.5 0 1 0 -15 0zM400.44 669.86 a7.5 7.5 0 1 0 15 0 a7.5 7.5 0 1 0 -15 0zM400.44 594.86 a7.5 7.5 0 1 0 15 0 a7.5 7.5 0 1 0 -15 0zM595.3 107.36 a7.5 7.5 0 1 0 15 0 a7.5 7.5 0 1 0 -15 0zM660.26 144.86 a7.5 7.5 0 1 0 15 0 a7.5 7.5 0 1 0 -15 0zM660.26 219.86 a7.5 7.5 0 1 0 15 0 a7.5 7.5 0 1 0 -15 0zM595.3 257.36 a7.5 7.5 0 1 0 15 0 a7.5 7.5 0 1 0 -15 0zM530.35 219.86 a7.5 7.5 0 1 0 15 0 a7.5 7.5 0 1 0 -15 0zM530.35 144.86 a7.5 7.5 0 1 0 15 0 a7.5 7.5 0 1 0 -15 0zM595.3 332.36 a7.5 7.5 0 1 0 15 0 a7.5 7.5 0 1 0 -15 0zM660.26 369.86 a7.5 7.5 0 1 0 15 0 a7.5 7.5 0 1 0 -15 0zM660.26 444.86 a7.5 7.5 0 1 0 15 0 a7.5 7.5 0 1 0 -15 0zM595.3 482.36 a7.5 7.5 0 1 0 15 0 a7.5 7.5 0 1 0 -15 0zM660.26 -5.14 a7.5 7.5 0 1 0 15 0 a7.5 7.5 0 1 0 -15 0zM725.21 32.36 a7.5 7.5 0 1 0 15 0 a7.5 7.5 0 1 0 -15 0zM725.21 107.36 a7.5 7.5 0 1 0 15 0 a7.5 7.5 0 1 0 -15 0zM595.3 32.36 a7.5 7.5 0 1 0 15 0 a7.5 7.5 0 1 0 -15 0zM790.17 144.86 a7.5 7.5 0 1 0 15 0 a7.5 7.5 0 1 0 -15 0zM790.17 219.86 a7.5 7.5 0 1 0 15 0 a7.5 7.5 0 1 0 -15 0zM725.21 257.36 a7.5 7.5 0 1 0 15 0 a7.5 7.5 0 1 0 -15 0zM725.21 332.36 a7.5 7.5 0 1 0 15 0 a7.5 7.5 0 1 0 -15 0zM790.17 369.86 a7.5 7.5 0 1 0 15 0 a7.5 7.5 0 1 0 -15 0zM790.17 444.86 a7.5 7.5 0 1 0 15 0 a7.5 7.5 0 1 0 -15 0zM725.21 482.36 a7.5 7.5 0 1 0 15 0 a7.5 7.5 0 1 0 -15 0zM725.21 557.36 a7.5 7.5 0 1 0 15 0 a7.5 7.5 0 1 0 -15 0zM790.17 594.86 a7.5 7.5 0 1 0 15 0 a7.5 7.5 0 1 0 -15 0zM790.17 669.86 a7.5 7.5 0 1 0 15 0 a7.5 7.5 0 1 0 -15 0zM725.21 707.36 a7.5 7.5 0 1 0 15 0 a7.5 7.5 0 1 0 -15 0zM660.26 669.86 a7.5 7.5 0 1 0 15 0 a7.5 7.5 0 1 0 -15 0zM660.26 594.86 a7.5 7.5 0 1 0 15 0 a7.5 7.5 0 1 0 -15 0zM790.16 -5.14 a7.5 7.5 0 1 0 15 0 a7.5 7.5 0 1 0 -15 0zM855.12 32.36 a7.5 7.5 0 1 0 15 0 a7.5 7.5 0 1 0 -15 0zM855.12 107.36 a7.5 7.5 0 1 0 15 0 a7.5 7.5 0 1 0 -15 0zM790.16 144.86 a7.5 7.5 0 1 0 15 0 a7.5 7.5 0 1 0 -15 0zM790.16 219.86 a7.5 7.5 0 1 0 15 0 a7.5 7.5 0 1 0 -15 0zM855.12 257.36 a7.5 7.5 0 1 0 15 0 a7.5 7.5 0 1 0 -15 0zM855.12 332.36 a7.5 7.5 0 1 0 15 0 a7.5 7.5 0 1 0 -15 0zM790.16 369.86 a7.5 7.5 0 1 0 15 0 a7.5 7.5 0 1 0 -15 0zM790.16 444.86 a7.5 7.5 0 1 0 15 0 a7.5 7.5 0 1 0 -15 0zM855.12 482.36 a7.5 7.5 0 1 0 15 0 a7.5 7.5 0 1 0 -15 0zM855.12 557.36 a7.5 7.5 0 1 0 15 0 a7.5 7.5 0 1 0 -15 0zM790.16 594.86 a7.5 7.5 0 1 0 15 0 a7.5 7.5 0 1 0 -15 0zM920.07 594.86 a7.5 7.5 0 1 0 15 0 a7.5 7.5 0 1 0 -15 0zM920.07 669.86 a7.5 7.5 0 1 0 15 0 a7.5 7.5 0 1 0 -15 0zM855.12 707.36 a7.5 7.5 0 1 0 15 0 a7.5 7.5 0 1 0 -15 0zM790.16 669.86 a7.5 7.5 0 1 0 15 0 a7.5 7.5 0 1 0 -15 0zM920.07 444.86 a7.5 7.5 0 1 0 15 0 a7.5 7.5 0 1 0 -15 0zM985.03 482.36 a7.5 7.5 0 1 0 15 0 a7.5 7.5 0 1 0 -15 0zM985.03 557.36 a7.5 7.5 0 1 0 15 0 a7.5 7.5 0 1 0 -15 0zM1114.93 557.36 a7.5 7.5 0 1 0 15 0 a7.5 7.5 0 1 0 -15 0zM1179.89 594.86 a7.5 7.5 0 1 0 15 0 a7.5 7.5 0 1 0 -15 0zM1179.89 669.86 a7.5 7.5 0 1 0 15 0 a7.5 7.5 0 1 0 -15 0zM1114.93 707.36 a7.5 7.5 0 1 0 15 0 a7.5 7.5 0 1 0 -15 0zM1049.98 669.86 a7.5 7.5 0 1 0 15 0 a7.5 7.5 0 1 0 -15 0zM1049.98 594.86 a7.5 7.5 0 1 0 15 0 a7.5 7.5 0 1 0 -15 0zM1244.84 107.36 a7.5 7.5 0 1 0 15 0 a7.5 7.5 0 1 0 -15 0zM1309.79 144.86 a7.5 7.5 0 1 0 15 0 a7.5 7.5 0 1 0 -15 0zM1309.79 219.86 a7.5 7.5 0 1 0 15 0 a7.5 7.5 0 1 0 -15 0zM1244.84 257.36 a7.5 7.5 0 1 0 15 0 a7.5 7.5 0 1 0 -15 0zM1179.89 219.86 a7.5 7.5 0 1 0 15 0 a7.5 7.5 0 1 0 -15 0zM1179.89 144.86 a7.5 7.5 0 1 0 15 0 a7.5 7.5 0 1 0 -15 0zM1244.84 332.36 a7.5 7.5 0 1 0 15 0 a7.5 7.5 0 1 0 -15 0zM1179.89 369.86 a7.5 7.5 0 1 0 15 0 a7.5 7.5 0 1 0 -15 0zM1114.93 332.36 a7.5 7.5 0 1 0 15 0 a7.5 7.5 0 1 0 -15 0zM1114.93 257.36 a7.5 7.5 0 1 0 15 0 a7.5 7.5 0 1 0 -15 0zM1179.89 444.86 a7.5 7.5 0 1 0 15 0 a7.5 7.5 0 1 0 -15 0zM1244.84 482.36 a7.5 7.5 0 1 0 15 0 a7.5 7.5 0 1 0 -15 0zM1244.84 557.36 a7.5 7.5 0 1 0 15 0 a7.5 7.5 0 1 0 -15 0zM1114.93 482.36 a7.5 7.5 0 1 0 15 0 a7.5 7.5 0 1 0 -15 0zM1374.75 107.36 a7.5 7.5 0 1 0 15 0 a7.5 7.5 0 1 0 -15 0zM1439.7 144.86 a7.5 7.5 0 1 0 15 0 a7.5 7.5 0 1 0 -15 0zM1439.7 219.86 a7.5 7.5 0 1 0 15 0 a7.5 7.5 0 1 0 -15 0zM1374.75 257.36 a7.5 7.5 0 1 0 15 0 a7.5 7.5 0 1 0 -15 0zM1309.8 219.86 a7.5 7.5 0 1 0 15 0 a7.5 7.5 0 1 0 -15 0zM1309.8 144.86 a7.5 7.5 0 1 0 15 0 a7.5 7.5 0 1 0 -15 0zM1374.75 332.36 a7.5 7.5 0 1 0 15 0 a7.5 7.5 0 1 0 -15 0zM1309.8 369.86 a7.5 7.5 0 1 0 15 0 a7.5 7.5 0 1 0 -15 0zM1309.8 444.86 a7.5 7.5 0 1 0 15 0 a7.5 7.5 0 1 0 -15 0zM1374.75 482.36 a7.5 7.5 0 1 0 15 0 a7.5 7.5 0 1 0 -15 0zM1374.75 557.36 a7.5 7.5 0 1 0 15 0 a7.5 7.5 0 1 0 -15 0zM1309.8 594.86 a7.5 7.5 0 1 0 15 0 a7.5 7.5 0 1 0 -15 0zM1439.7 594.86 a7.5 7.5 0 1 0 15 0 a7.5 7.5 0 1 0 -15 0zM1439.7 669.86 a7.5 7.5 0 1 0 15 0 a7.5 7.5 0 1 0 -15 0zM1374.75 707.36 a7.5 7.5 0 1 0 15 0 a7.5 7.5 0 1 0 -15 0zM1309.8 669.86 a7.5 7.5 0 1 0 15 0 a7.5 7.5 0 1 0 -15 0zM1439.7 -5.14 a7.5 7.5 0 1 0 15 0 a7.5 7.5 0 1 0 -15 0zM1504.66 32.36 a7.5 7.5 0 1 0 15 0 a7.5 7.5 0 1 0 -15 0zM1504.66 107.36 a7.5 7.5 0 1 0 15 0 a7.5 7.5 0 1 0 -15 0zM1374.75 32.36 a7.5 7.5 0 1 0 15 0 a7.5 7.5 0 1 0 -15 0zM1504.66 332.36 a7.5 7.5 0 1 0 15 0 a7.5 7.5 0 1 0 -15 0zM1569.61 369.86 a7.5 7.5 0 1 0 15 0 a7.5 7.5 0 1 0 -15 0zM1569.61 444.86 a7.5 7.5 0 1 0 15 0 a7.5 7.5 0 1 0 -15 0zM1504.66 482.36 a7.5 7.5 0 1 0 15 0 a7.5 7.5 0 1 0 -15 0zM1439.7 444.86 a7.5 7.5 0 1 0 15 0 a7.5 7.5 0 1 0 -15 0zM1439.7 369.86 a7.5 7.5 0 1 0 15 0 a7.5 7.5 0 1 0 -15 0zM1504.66 557.36 a7.5 7.5 0 1 0 15 0 a7.5 7.5 0 1 0 -15 0zM1569.61 594.86 a7.5 7.5 0 1 0 15 0 a7.5 7.5 0 1 0 -15 0zM1569.61 669.86 a7.5 7.5 0 1 0 15 0 a7.5 7.5 0 1 0 -15 0zM1504.66 707.36 a7.5 7.5 0 1 0 15 0 a7.5 7.5 0 1 0 -15 0z" fill="rgba(0, 141, 255, 0.3)"></path><path d="M0.44 -0.56L19.49 10.44L19.49 32.44L0.44 43.44L-18.61 32.44L-18.61 10.44zM19.49 32.44L38.55 43.44L38.55 65.44L19.49 76.44L0.44 65.44L0.44 43.44zM0.44 263.44L19.49 274.44L19.49 296.44L0.44 307.44L-18.61 296.44L-18.61 274.44zM19.49 362.44L38.55 373.44L38.55 395.44L19.49 406.44L0.44 395.44L0.44 373.44zM0.44 395.44L19.49 406.44L19.49 428.44L0.44 439.44L-18.61 428.44L-18.61 406.44zM0.44 461.44L19.49 472.44L19.49 494.44L0.44 505.44L-18.61 494.44L-18.61 472.44zM19.49 560.44L38.55 571.44L38.55 593.44L19.49 604.44L0.44 593.44L0.44 571.44zM38.55 65.44L57.6 76.44L57.6 98.44L38.55 109.44L19.49 98.44L19.49 76.44zM57.6 230.44L76.65 241.44L76.65 263.44L57.6 274.44L38.55 263.44L38.55 241.44zM38.55 263.44L57.6 274.44L57.6 296.44L38.55 307.44L19.49 296.44L19.49 274.44zM57.6 296.44L76.65 307.44L76.65 329.44L57.6 340.44L38.55 329.44L38.55 307.44zM38.55 329.44L57.6 340.44L57.6 362.44L38.55 373.44L19.49 362.44L19.49 340.44zM57.6 494.44L76.65 505.44L76.65 527.44L57.6 538.44L38.55 527.44L38.55 505.44zM38.55 527.44L57.6 538.44L57.6 560.44L38.55 571.44L19.49 560.44L19.49 538.44zM57.6 560.44L76.65 571.44L76.65 593.44L57.6 604.44L38.55 593.44L38.55 571.44zM76.65 131.44L95.71 142.44L95.71 164.44L76.65 175.44L57.6 164.44L57.6 142.44zM76.65 197.44L95.71 208.44L95.71 230.44L76.65 241.44L57.6 230.44L57.6 208.44zM95.71 296.44L114.76 307.44L114.76 329.44L95.71 340.44L76.65 329.44L76.65 307.44zM76.65 329.44L95.71 340.44L95.71 362.44L76.65 373.44L57.6 362.44L57.6 340.44zM95.71 362.44L114.76 373.44L114.76 395.44L95.71 406.44L76.65 395.44L76.65 373.44zM76.65 395.44L95.71 406.44L95.71 428.44L76.65 439.44L57.6 428.44L57.6 406.44zM95.71 428.44L114.76 439.44L114.76 461.44L95.71 472.44L76.65 461.44L76.65 439.44zM76.65 461.44L95.71 472.44L95.71 494.44L76.65 505.44L57.6 494.44L57.6 472.44zM95.71 494.44L114.76 505.44L114.76 527.44L95.71 538.44L76.65 527.44L76.65 505.44zM133.81 32.44L152.86 43.44L152.86 65.44L133.81 76.44L114.76 65.44L114.76 43.44zM133.81 164.44L152.86 175.44L152.86 197.44L133.81 208.44L114.76 197.44L114.76 175.44zM114.76 197.44L133.81 208.44L133.81 230.44L114.76 241.44L95.71 230.44L95.71 208.44zM114.76 263.44L133.81 274.44L133.81 296.44L114.76 307.44L95.71 296.44L95.71 274.44zM133.81 296.44L152.86 307.44L152.86 329.44L133.81 340.44L114.76 329.44L114.76 307.44zM133.81 362.44L152.86 373.44L152.86 395.44L133.81 406.44L114.76 395.44L114.76 373.44zM133.81 560.44L152.86 571.44L152.86 593.44L133.81 604.44L114.76 593.44L114.76 571.44zM152.86 131.44L171.92 142.44L171.92 164.44L152.86 175.44L133.81 164.44L133.81 142.44zM171.92 296.44L190.97 307.44L190.97 329.44L171.92 340.44L152.86 329.44L152.86 307.44zM171.92 362.44L190.97 373.44L190.97 395.44L171.92 406.44L152.86 395.44L152.86 373.44zM171.92 560.44L190.97 571.44L190.97 593.44L171.92 604.44L152.86 593.44L152.86 571.44zM190.97 -0.56L210.02 10.44L210.02 32.44L190.97 43.44L171.92 32.44L171.92 10.44zM190.97 131.44L210.02 142.44L210.02 164.44L190.97 175.44L171.92 164.44L171.92 142.44zM210.02 164.44L229.08 175.44L229.08 197.44L210.02 208.44L190.97 197.44L190.97 175.44zM190.97 197.44L210.02 208.44L210.02 230.44L190.97 241.44L171.92 230.44L171.92 208.44zM190.97 527.44L210.02 538.44L210.02 560.44L190.97 571.44L171.92 560.44L171.92 538.44zM210.02 560.44L229.08 571.44L229.08 593.44L210.02 604.44L190.97 593.44L190.97 571.44zM248.13 164.44L267.18 175.44L267.18 197.44L248.13 208.44L229.08 197.44L229.08 175.44zM248.13 230.44L267.18 241.44L267.18 263.44L248.13 274.44L229.08 263.44L229.08 241.44zM229.08 329.44L248.13 340.44L248.13 362.44L229.08 373.44L210.02 362.44L210.02 340.44zM248.13 362.44L267.18 373.44L267.18 395.44L248.13 406.44L229.08 395.44L229.08 373.44zM229.08 395.44L248.13 406.44L248.13 428.44L229.08 439.44L210.02 428.44L210.02 406.44zM248.13 428.44L267.18 439.44L267.18 461.44L248.13 472.44L229.08 461.44L229.08 439.44zM248.13 494.44L267.18 505.44L267.18 527.44L248.13 538.44L229.08 527.44L229.08 505.44zM286.24 230.44L305.29 241.44L305.29 263.44L286.24 274.44L267.18 263.44L267.18 241.44zM267.18 263.44L286.24 274.44L286.24 296.44L267.18 307.44L248.13 296.44L248.13 274.44zM286.24 296.44L305.29 307.44L305.29 329.44L286.24 340.44L267.18 329.44L267.18 307.44zM267.18 395.44L286.24 406.44L286.24 428.44L267.18 439.44L248.13 428.44L248.13 406.44zM324.34 32.44L343.4 43.44L343.4 65.44L324.34 76.44L305.29 65.44L305.29 43.44zM324.34 98.44L343.4 109.44L343.4 131.44L324.34 142.44L305.29 131.44L305.29 109.44zM324.34 164.44L343.4 175.44L343.4 197.44L324.34 208.44L305.29 197.44L305.29 175.44zM324.34 230.44L343.4 241.44L343.4 263.44L324.34 274.44L305.29 263.44L305.29 241.44zM362.45 32.44L381.5 43.44L381.5 65.44L362.45 76.44L343.4 65.44L343.4 43.44zM343.4 65.44L362.45 76.44L362.45 98.44L343.4 109.44L324.34 98.44L324.34 76.44zM362.45 98.44L381.5 109.44L381.5 131.44L362.45 142.44L343.4 131.44L343.4 109.44zM362.45 164.44L381.5 175.44L381.5 197.44L362.45 208.44L343.4 197.44L343.4 175.44zM362.45 230.44L381.5 241.44L381.5 263.44L362.45 274.44L343.4 263.44L343.4 241.44zM362.45 362.44L381.5 373.44L381.5 395.44L362.45 406.44L343.4 395.44L343.4 373.44zM343.4 527.44L362.45 538.44L362.45 560.44L343.4 571.44L324.34 560.44L324.34 538.44zM362.45 560.44L381.5 571.44L381.5 593.44L362.45 604.44L343.4 593.44L343.4 571.44zM381.5 -0.56L400.56 10.44L400.56 32.44L381.5 43.44L362.45 32.44L362.45 10.44zM381.5 263.44L400.56 274.44L400.56 296.44L381.5 307.44L362.45 296.44L362.45 274.44zM400.56 296.44L419.61 307.44L419.61 329.44L400.56 340.44L381.5 329.44L381.5 307.44zM381.5 329.44L400.56 340.44L400.56 362.44L381.5 373.44L362.45 362.44L362.45 340.44zM381.5 461.44L400.56 472.44L400.56 494.44L381.5 505.44L362.45 494.44L362.45 472.44zM400.56 494.44L419.61 505.44L419.61 527.44L400.56 538.44L381.5 527.44L381.5 505.44zM400.56 560.44L419.61 571.44L419.61 593.44L400.56 604.44L381.5 593.44L381.5 571.44zM438.66 428.44L457.71 439.44L457.71 461.44L438.66 472.44L419.61 461.44L419.61 439.44zM438.66 494.44L457.71 505.44L457.71 527.44L438.66 538.44L419.61 527.44L419.61 505.44zM419.61 527.44L438.66 538.44L438.66 560.44L419.61 571.44L400.56 560.44L400.56 538.44zM476.77 98.44L495.82 109.44L495.82 131.44L476.77 142.44L457.71 131.44L457.71 109.44zM457.71 131.44L476.77 142.44L476.77 164.44L457.71 175.44L438.66 164.44L438.66 142.44zM476.77 230.44L495.82 241.44L495.82 263.44L476.77 274.44L457.71 263.44L457.71 241.44zM457.71 461.44L476.77 472.44L476.77 494.44L457.71 505.44L438.66 494.44L438.66 472.44zM457.71 527.44L476.77 538.44L476.77 560.44L457.71 571.44L438.66 560.44L438.66 538.44zM514.87 164.44L533.93 175.44L533.93 197.44L514.87 208.44L495.82 197.44L495.82 175.44zM514.87 230.44L533.93 241.44L533.93 263.44L514.87 274.44L495.82 263.44L495.82 241.44zM495.82 263.44L514.87 274.44L514.87 296.44L495.82 307.44L476.77 296.44L476.77 274.44zM495.82 329.44L514.87 340.44L514.87 362.44L495.82 373.44L476.77 362.44L476.77 340.44zM533.93 -0.56L552.98 10.44L552.98 32.44L533.93 43.44L514.87 32.44L514.87 10.44zM533.93 65.44L552.98 76.44L552.98 98.44L533.93 109.44L514.87 98.44L514.87 76.44zM552.98 164.44L572.03 175.44L572.03 197.44L552.98 208.44L533.93 197.44L533.93 175.44zM533.93 329.44L552.98 340.44L552.98 362.44L533.93 373.44L514.87 362.44L514.87 340.44zM552.98 362.44L572.03 373.44L572.03 395.44L552.98 406.44L533.93 395.44L533.93 373.44zM533.93 395.44L552.98 406.44L552.98 428.44L533.93 439.44L514.87 428.44L514.87 406.44zM572.03 131.44L591.09 142.44L591.09 164.44L572.03 175.44L552.98 164.44L552.98 142.44zM591.09 230.44L610.14 241.44L610.14 263.44L591.09 274.44L572.03 263.44L572.03 241.44zM572.03 329.44L591.09 340.44L591.09 362.44L572.03 373.44L552.98 362.44L552.98 340.44zM572.03 395.44L591.09 406.44L591.09 428.44L572.03 439.44L552.98 428.44L552.98 406.44zM572.03 461.44L591.09 472.44L591.09 494.44L572.03 505.44L552.98 494.44L552.98 472.44zM572.03 527.44L591.09 538.44L591.09 560.44L572.03 571.44L552.98 560.44L552.98 538.44zM610.14 -0.56L629.19 10.44L629.19 32.44L610.14 43.44L591.09 32.44L591.09 10.44zM629.19 164.44L648.25 175.44L648.25 197.44L629.19 208.44L610.14 197.44L610.14 175.44zM629.19 230.44L648.25 241.44L648.25 263.44L629.19 274.44L610.14 263.44L610.14 241.44zM610.14 395.44L629.19 406.44L629.19 428.44L610.14 439.44L591.09 428.44L591.09 406.44zM610.14 461.44L629.19 472.44L629.19 494.44L610.14 505.44L591.09 494.44L591.09 472.44zM610.14 527.44L629.19 538.44L629.19 560.44L610.14 571.44L591.09 560.44L591.09 538.44zM629.19 560.44L648.25 571.44L648.25 593.44L629.19 604.44L610.14 593.44L610.14 571.44zM667.3 32.44L686.35 43.44L686.35 65.44L667.3 76.44L648.25 65.44L648.25 43.44zM667.3 164.44L686.35 175.44L686.35 197.44L667.3 208.44L648.25 197.44L648.25 175.44zM667.3 296.44L686.35 307.44L686.35 329.44L667.3 340.44L648.25 329.44L648.25 307.44zM648.25 329.44L667.3 340.44L667.3 362.44L648.25 373.44L629.19 362.44L629.19 340.44zM648.25 395.44L667.3 406.44L667.3 428.44L648.25 439.44L629.19 428.44L629.19 406.44zM648.25 461.44L667.3 472.44L667.3 494.44L648.25 505.44L629.19 494.44L629.19 472.44zM667.3 560.44L686.35 571.44L686.35 593.44L667.3 604.44L648.25 593.44L648.25 571.44zM686.35 -0.56L705.4 10.44L705.4 32.44L686.35 43.44L667.3 32.44L667.3 10.44zM705.4 32.44L724.46 43.44L724.46 65.44L705.4 76.44L686.35 65.44L686.35 43.44zM686.35 65.44L705.4 76.44L705.4 98.44L686.35 109.44L667.3 98.44L667.3 76.44zM705.4 98.44L724.46 109.44L724.46 131.44L705.4 142.44L686.35 131.44L686.35 109.44zM686.35 131.44L705.4 142.44L705.4 164.44L686.35 175.44L667.3 164.44L667.3 142.44zM705.4 164.44L724.46 175.44L724.46 197.44L705.4 208.44L686.35 197.44L686.35 175.44zM686.35 197.44L705.4 208.44L705.4 230.44L686.35 241.44L667.3 230.44L667.3 208.44zM686.35 263.44L705.4 274.44L705.4 296.44L686.35 307.44L667.3 296.44L667.3 274.44zM705.4 296.44L724.46 307.44L724.46 329.44L705.4 340.44L686.35 329.44L686.35 307.44zM686.35 395.44L705.4 406.44L705.4 428.44L686.35 439.44L667.3 428.44L667.3 406.44zM686.35 527.44L705.4 538.44L705.4 560.44L686.35 571.44L667.3 560.44L667.3 538.44zM724.46 -0.56L743.51 10.44L743.51 32.44L724.46 43.44L705.4 32.44L705.4 10.44zM743.51 32.44L762.56 43.44L762.56 65.44L743.51 76.44L724.46 65.44L724.46 43.44zM743.51 98.44L762.56 109.44L762.56 131.44L743.51 142.44L724.46 131.44L724.46 109.44zM743.51 296.44L762.56 307.44L762.56 329.44L743.51 340.44L724.46 329.44L724.46 307.44zM724.46 329.44L743.51 340.44L743.51 362.44L724.46 373.44L705.4 362.44L705.4 340.44zM743.51 362.44L762.56 373.44L762.56 395.44L743.51 406.44L724.46 395.44L724.46 373.44zM743.51 560.44L762.56 571.44L762.56 593.44L743.51 604.44L724.46 593.44L724.46 571.44zM762.56 131.44L781.62 142.44L781.62 164.44L762.56 175.44L743.51 164.44L743.51 142.44zM762.56 329.44L781.62 340.44L781.62 362.44L762.56 373.44L743.51 362.44L743.51 340.44zM762.56 395.44L781.62 406.44L781.62 428.44L762.56 439.44L743.51 428.44L743.51 406.44zM781.62 428.44L800.67 439.44L800.67 461.44L781.62 472.44L762.56 461.44L762.56 439.44zM762.56 461.44L781.62 472.44L781.62 494.44L762.56 505.44L743.51 494.44L743.51 472.44zM800.67 -0.56L819.72 10.44L819.72 32.44L800.67 43.44L781.62 32.44L781.62 10.44zM800.67 65.44L819.72 76.44L819.72 98.44L800.67 109.44L781.62 98.44L781.62 76.44zM819.72 164.44L838.78 175.44L838.78 197.44L819.72 208.44L800.67 197.44L800.67 175.44zM819.72 230.44L838.78 241.44L838.78 263.44L819.72 274.44L800.67 263.44L800.67 241.44zM800.67 395.44L819.72 406.44L819.72 428.44L800.67 439.44L781.62 428.44L781.62 406.44zM800.67 527.44L819.72 538.44L819.72 560.44L800.67 571.44L781.62 560.44L781.62 538.44zM819.72 560.44L838.78 571.44L838.78 593.44L819.72 604.44L800.67 593.44L800.67 571.44zM838.78 65.44L857.83 76.44L857.83 98.44L838.78 109.44L819.72 98.44L819.72 76.44zM857.83 98.44L876.88 109.44L876.88 131.44L857.83 142.44L838.78 131.44L838.78 109.44zM857.83 230.44L876.88 241.44L876.88 263.44L857.83 274.44L838.78 263.44L838.78 241.44zM838.78 263.44L857.83 274.44L857.83 296.44L838.78 307.44L819.72 296.44L819.72 274.44zM857.83 296.44L876.88 307.44L876.88 329.44L857.83 340.44L838.78 329.44L838.78 307.44zM838.78 395.44L857.83 406.44L857.83 428.44L838.78 439.44L819.72 428.44L819.72 406.44zM857.83 428.44L876.88 439.44L876.88 461.44L857.83 472.44L838.78 461.44L838.78 439.44zM857.83 560.44L876.88 571.44L876.88 593.44L857.83 604.44L838.78 593.44L838.78 571.44zM876.88 65.44L895.94 76.44L895.94 98.44L876.88 109.44L857.83 98.44L857.83 76.44zM876.88 329.44L895.94 340.44L895.94 362.44L876.88 373.44L857.83 362.44L857.83 340.44zM895.94 362.44L914.99 373.44L914.99 395.44L895.94 406.44L876.88 395.44L876.88 373.44zM876.88 395.44L895.94 406.44L895.94 428.44L876.88 439.44L857.83 428.44L857.83 406.44zM914.99 65.44L934.04 76.44L934.04 98.44L914.99 109.44L895.94 98.44L895.94 76.44zM934.04 230.44L953.1 241.44L953.1 263.44L934.04 274.44L914.99 263.44L914.99 241.44zM934.04 296.44L953.1 307.44L953.1 329.44L934.04 340.44L914.99 329.44L914.99 307.44zM914.99 329.44L934.04 340.44L934.04 362.44L914.99 373.44L895.94 362.44L895.94 340.44zM934.04 428.44L953.1 439.44L953.1 461.44L934.04 472.44L914.99 461.44L914.99 439.44zM953.1 -0.56L972.15 10.44L972.15 32.44L953.1 43.44L934.04 32.44L934.04 10.44zM972.15 32.44L991.2 43.44L991.2 65.44L972.15 76.44L953.1 65.44L953.1 43.44zM953.1 131.44L972.15 142.44L972.15 164.44L953.1 175.44L934.04 164.44L934.04 142.44zM953.1 197.44L972.15 208.44L972.15 230.44L953.1 241.44L934.04 230.44L934.04 208.44zM972.15 230.44L991.2 241.44L991.2 263.44L972.15 274.44L953.1 263.44L953.1 241.44zM972.15 362.44L991.2 373.44L991.2 395.44L972.15 406.44L953.1 395.44L953.1 373.44zM953.1 461.44L972.15 472.44L972.15 494.44L953.1 505.44L934.04 494.44L934.04 472.44zM972.15 494.44L991.2 505.44L991.2 527.44L972.15 538.44L953.1 527.44L953.1 505.44zM972.15 560.44L991.2 571.44L991.2 593.44L972.15 604.44L953.1 593.44L953.1 571.44zM991.2 197.44L1010.25 208.44L1010.25 230.44L991.2 241.44L972.15 230.44L972.15 208.44zM1010.25 296.44L1029.31 307.44L1029.31 329.44L1010.25 340.44L991.2 329.44L991.2 307.44zM1048.36 98.44L1067.41 109.44L1067.41 131.44L1048.36 142.44L1029.31 131.44L1029.31 109.44zM1029.31 197.44L1048.36 208.44L1048.36 230.44L1029.31 241.44L1010.25 230.44L1010.25 208.44zM1048.36 230.44L1067.41 241.44L1067.41 263.44L1048.36 274.44L1029.31 263.44L1029.31 241.44zM1048.36 296.44L1067.41 307.44L1067.41 329.44L1048.36 340.44L1029.31 329.44L1029.31 307.44zM1048.36 428.44L1067.41 439.44L1067.41 461.44L1048.36 472.44L1029.31 461.44L1029.31 439.44zM1086.47 32.44L1105.52 43.44L1105.52 65.44L1086.47 76.44L1067.41 65.44L1067.41 43.44zM1067.41 131.44L1086.47 142.44L1086.47 164.44L1067.41 175.44L1048.36 164.44L1048.36 142.44zM1067.41 263.44L1086.47 274.44L1086.47 296.44L1067.41 307.44L1048.36 296.44L1048.36 274.44zM1086.47 428.44L1105.52 439.44L1105.52 461.44L1086.47 472.44L1067.41 461.44L1067.41 439.44zM1105.52 -0.56L1124.57 10.44L1124.57 32.44L1105.52 43.44L1086.47 32.44L1086.47 10.44zM1124.57 32.44L1143.63 43.44L1143.63 65.44L1124.57 76.44L1105.52 65.44L1105.52 43.44zM1105.52 197.44L1124.57 208.44L1124.57 230.44L1105.52 241.44L1086.47 230.44L1086.47 208.44zM1105.52 263.44L1124.57 274.44L1124.57 296.44L1105.52 307.44L1086.47 296.44L1086.47 274.44zM1124.57 494.44L1143.63 505.44L1143.63 527.44L1124.57 538.44L1105.52 527.44L1105.52 505.44zM1162.68 32.44L1181.73 43.44L1181.73 65.44L1162.68 76.44L1143.63 65.44L1143.63 43.44zM1143.63 65.44L1162.68 76.44L1162.68 98.44L1143.63 109.44L1124.57 98.44L1124.57 76.44zM1162.68 98.44L1181.73 109.44L1181.73 131.44L1162.68 142.44L1143.63 131.44L1143.63 109.44zM1143.63 197.44L1162.68 208.44L1162.68 230.44L1143.63 241.44L1124.57 230.44L1124.57 208.44zM1162.68 296.44L1181.73 307.44L1181.73 329.44L1162.68 340.44L1143.63 329.44L1143.63 307.44zM1143.63 329.44L1162.68 340.44L1162.68 362.44L1143.63 373.44L1124.57 362.44L1124.57 340.44zM1143.63 461.44L1162.68 472.44L1162.68 494.44L1143.63 505.44L1124.57 494.44L1124.57 472.44zM1143.63 527.44L1162.68 538.44L1162.68 560.44L1143.63 571.44L1124.57 560.44L1124.57 538.44zM1181.73 197.44L1200.79 208.44L1200.79 230.44L1181.73 241.44L1162.68 230.44L1162.68 208.44zM1181.73 329.44L1200.79 340.44L1200.79 362.44L1181.73 373.44L1162.68 362.44L1162.68 340.44zM1200.79 362.44L1219.84 373.44L1219.84 395.44L1200.79 406.44L1181.73 395.44L1181.73 373.44zM1181.73 461.44L1200.79 472.44L1200.79 494.44L1181.73 505.44L1162.68 494.44L1162.68 472.44zM1219.84 65.44L1238.89 76.44L1238.89 98.44L1219.84 109.44L1200.79 98.44L1200.79 76.44zM1238.89 164.44L1257.94 175.44L1257.94 197.44L1238.89 208.44L1219.84 197.44L1219.84 175.44zM1219.84 197.44L1238.89 208.44L1238.89 230.44L1219.84 241.44L1200.79 230.44L1200.79 208.44zM1238.89 494.44L1257.94 505.44L1257.94 527.44L1238.89 538.44L1219.84 527.44L1219.84 505.44zM1219.84 527.44L1238.89 538.44L1238.89 560.44L1219.84 571.44L1200.79 560.44L1200.79 538.44zM1277 98.44L1296.05 109.44L1296.05 131.44L1277 142.44L1257.94 131.44L1257.94 109.44zM1257.94 263.44L1277 274.44L1277 296.44L1257.94 307.44L1238.89 296.44L1238.89 274.44zM1257.94 395.44L1277 406.44L1277 428.44L1257.94 439.44L1238.89 428.44L1238.89 406.44zM1277 560.44L1296.05 571.44L1296.05 593.44L1277 604.44L1257.94 593.44L1257.94 571.44zM1296.05 65.44L1315.1 76.44L1315.1 98.44L1296.05 109.44L1277 98.44L1277 76.44zM1296.05 131.44L1315.1 142.44L1315.1 164.44L1296.05 175.44L1277 164.44L1277 142.44zM1315.1 164.44L1334.16 175.44L1334.16 197.44L1315.1 208.44L1296.05 197.44L1296.05 175.44zM1296.05 329.44L1315.1 340.44L1315.1 362.44L1296.05 373.44L1277 362.44L1277 340.44zM1315.1 494.44L1334.16 505.44L1334.16 527.44L1315.1 538.44L1296.05 527.44L1296.05 505.44zM1315.1 560.44L1334.16 571.44L1334.16 593.44L1315.1 604.44L1296.05 593.44L1296.05 571.44zM1334.16 -0.56L1353.21 10.44L1353.21 32.44L1334.16 43.44L1315.1 32.44L1315.1 10.44zM1353.21 32.44L1372.26 43.44L1372.26 65.44L1353.21 76.44L1334.16 65.44L1334.16 43.44zM1334.16 65.44L1353.21 76.44L1353.21 98.44L1334.16 109.44L1315.1 98.44L1315.1 76.44zM1353.21 98.44L1372.26 109.44L1372.26 131.44L1353.21 142.44L1334.16 131.44L1334.16 109.44zM1334.16 131.44L1353.21 142.44L1353.21 164.44L1334.16 175.44L1315.1 164.44L1315.1 142.44zM1334.16 461.44L1353.21 472.44L1353.21 494.44L1334.16 505.44L1315.1 494.44L1315.1 472.44zM1353.21 494.44L1372.26 505.44L1372.26 527.44L1353.21 538.44L1334.16 527.44L1334.16 505.44zM1372.26 131.44L1391.32 142.44L1391.32 164.44L1372.26 175.44L1353.21 164.44L1353.21 142.44zM1391.32 164.44L1410.37 175.44L1410.37 197.44L1391.32 208.44L1372.26 197.44L1372.26 175.44zM1391.32 494.44L1410.37 505.44L1410.37 527.44L1391.32 538.44L1372.26 527.44L1372.26 505.44zM1410.37 65.44L1429.42 76.44L1429.42 98.44L1410.37 109.44L1391.32 98.44L1391.32 76.44zM1429.42 164.44L1448.48 175.44L1448.48 197.44L1429.42 208.44L1410.37 197.44L1410.37 175.44zM1429.42 362.44L1448.48 373.44L1448.48 395.44L1429.42 406.44L1410.37 395.44L1410.37 373.44z" stroke="rgba(255, 0, 0, 0.2)" stroke-width="2"></path></g><defs><mask id="SvgjsMask1129"><rect width="1440" height="560" fill="#ffffff"></rect></mask></defs></svg>