<svg xmlns="http://www.w3.org/2000/svg" version="1.1" xmlns:xlink="http://www.w3.org/1999/xlink" xmlns:svgjs="http://svgjs.com/svgjs" width="1440" height="560" preserveAspectRatio="none" viewBox="0 0 1440 560"><g mask="url(&quot;#SvgjsMask1018&quot;)" fill="none"><path d="M-69.84 408.48L-69.84 408.48" stroke="#132e65" stroke-width="1.5"></path><path d="M-69.84 408.48L-100.78 519.77" stroke="#132e65" stroke-width="1.5"></path><path d="M-100.78 519.77L-100.78 519.77" stroke="#132e65" stroke-width="1.5"></path><path d="M-100.78 519.77L60.92 396.52" stroke="#132e65" stroke-width="1.5"></path><path d="M-100.78 519.77L104.2 543.66" stroke="#132e65" stroke-width="1.5"></path><path d="M-100.78 519.77L62.13 677.17" stroke="#132e65" stroke-width="1.5"></path><path d="M-100.78 519.77L195.71 494.73" stroke="#132e65" stroke-width="1.5"></path><path d="M-100.78 519.77L239.13 406.76" stroke="#132e65" stroke-width="1.5"></path><path d="M60.92 396.52L60.92 396.52" stroke="#132e65" stroke-width="1.5"></path><path d="M60.92 396.52L-69.84 408.48" stroke="#132e65" stroke-width="1.5"></path><path d="M60.92 396.52L104.2 543.66" stroke="#132e65" stroke-width="1.5"></path><path d="M60.92 396.52L195.71 494.73" stroke="#132e65" stroke-width="1.5"></path><path d="M60.92 396.52L239.13 406.76" stroke="#132e65" stroke-width="1.5"></path><path d="M60.92 396.52L62.13 677.17" stroke="#132e65" stroke-width="1.5"></path><path d="M104.2 543.66L104.2 543.66" stroke="#132e65" stroke-width="1.5"></path><path d="M104.2 543.66L195.71 494.73" stroke="#132e65" stroke-width="1.5"></path><path d="M104.2 543.66L62.13 677.17" stroke="#132e65" stroke-width="1.5"></path><path d="M104.2 543.66L239.13 406.76" stroke="#132e65" stroke-width="1.5"></path><path d="M62.13 677.17L62.13 677.17" stroke="#132e65" stroke-width="1.5"></path><path d="M62.13 677.17L249.8 673.18" stroke="#132e65" stroke-width="1.5"></path><path d="M62.13 677.17L195.71 494.73" stroke="#132e65" stroke-width="1.5"></path><path d="M239.13 406.76L239.13 406.76" stroke="#132e65" stroke-width="1.5"></path><path d="M239.13 406.76L195.71 494.73" stroke="#132e65" stroke-width="1.5"></path><path d="M239.13 406.76L358.98 396" stroke="#132e65" stroke-width="1.5"></path><path d="M239.13 406.76L370.76 547.55" stroke="#132e65" stroke-width="1.5"></path><path d="M239.13 406.76L249.8 673.18" stroke="#132e65" stroke-width="1.5"></path><path d="M195.71 494.73L195.71 494.73" stroke="#132e65" stroke-width="1.5"></path><path d="M195.71 494.73L370.76 547.55" stroke="#132e65" stroke-width="1.5"></path><path d="M195.71 494.73L249.8 673.18" stroke="#132e65" stroke-width="1.5"></path><path d="M195.71 494.73L358.98 396" stroke="#132e65" stroke-width="1.5"></path><path d="M249.8 673.18L249.8 673.18" stroke="#132e65" stroke-width="1.5"></path><path d="M249.8 673.18L359.99 692.49" stroke="#132e65" stroke-width="1.5"></path><path d="M358.98 396L358.98 396" stroke="#132e65" stroke-width="1.5"></path><path d="M358.98 396L370.76 547.55" stroke="#132e65" stroke-width="1.5"></path><path d="M358.98 396L555.93 355.24" stroke="#132e65" stroke-width="1.5"></path><path d="M358.98 396L507.6 546.89" stroke="#132e65" stroke-width="1.5"></path><path d="M370.76 547.55L370.76 547.55" stroke="#132e65" stroke-width="1.5"></path><path d="M370.76 547.55L507.6 546.89" stroke="#132e65" stroke-width="1.5"></path><path d="M370.76 547.55L359.99 692.49" stroke="#132e65" stroke-width="1.5"></path><path d="M370.76 547.55L249.8 673.18" stroke="#132e65" stroke-width="1.5"></path><path d="M359.99 692.49L359.99 692.49" stroke="#132e65" stroke-width="1.5"></path><path d="M359.99 692.49L490.76 705.96" stroke="#132e65" stroke-width="1.5"></path><path d="M359.99 692.49L507.6 546.89" stroke="#132e65" stroke-width="1.5"></path><path d="M555.93 355.24L555.93 355.24" stroke="#132e65" stroke-width="1.5"></path><path d="M555.93 355.24L651.41 380.34" stroke="#132e65" stroke-width="1.5"></path><path d="M555.93 355.24L641.42 249.21" stroke="#132e65" stroke-width="1.5"></path><path d="M555.93 355.24L507.6 546.89" stroke="#132e65" stroke-width="1.5"></path><path d="M555.93 355.24L672.09 518.06" stroke="#132e65" stroke-width="1.5"></path><path d="M507.6 546.89L507.6 546.89" stroke="#132e65" stroke-width="1.5"></path><path d="M507.6 546.89L490.76 705.96" stroke="#132e65" stroke-width="1.5"></path><path d="M507.6 546.89L672.09 518.06" stroke="#132e65" stroke-width="1.5"></path><path d="M507.6 546.89L677.79 658.49" stroke="#132e65" stroke-width="1.5"></path><path d="M490.76 705.96L490.76 705.96" stroke="#132e65" stroke-width="1.5"></path><path d="M490.76 705.96L677.79 658.49" stroke="#132e65" stroke-width="1.5"></path><path d="M641.42 249.21L641.42 249.21" stroke="#132e65" stroke-width="1.5"></path><path d="M641.42 249.21L651.41 380.34" stroke="#132e65" stroke-width="1.5"></path><path d="M641.42 249.21L801.22 227.15" stroke="#132e65" stroke-width="1.5"></path><path d="M641.42 249.21L840.88 339.12" stroke="#132e65" stroke-width="1.5"></path><path d="M641.42 249.21L826.06 112.29" stroke="#132e65" stroke-width="1.5"></path><path d="M651.41 380.34L651.41 380.34" stroke="#132e65" stroke-width="1.5"></path><path d="M651.41 380.34L672.09 518.06" stroke="#132e65" stroke-width="1.5"></path><path d="M651.41 380.34L840.88 339.12" stroke="#132e65" stroke-width="1.5"></path><path d="M651.41 380.34L801.22 227.15" stroke="#132e65" stroke-width="1.5"></path><path d="M672.09 518.06L672.09 518.06" stroke="#132e65" stroke-width="1.5"></path><path d="M672.09 518.06L677.79 658.49" stroke="#132e65" stroke-width="1.5"></path><path d="M672.09 518.06L815.52 529.4" stroke="#132e65" stroke-width="1.5"></path><path d="M677.79 658.49L677.79 658.49" stroke="#132e65" stroke-width="1.5"></path><path d="M677.79 658.49L843.6 688.68" stroke="#132e65" stroke-width="1.5"></path><path d="M826.06 112.29L826.06 112.29" stroke="#132e65" stroke-width="1.5"></path><path d="M826.06 112.29L801.22 227.15" stroke="#132e65" stroke-width="1.5"></path><path d="M826.06 112.29L996.72 104.61" stroke="#132e65" stroke-width="1.5"></path><path d="M826.06 112.29L958.65 231.79" stroke="#132e65" stroke-width="1.5"></path><path d="M801.22 227.15L801.22 227.15" stroke="#132e65" stroke-width="1.5"></path><path d="M801.22 227.15L840.88 339.12" stroke="#132e65" stroke-width="1.5"></path><path d="M840.88 339.12L840.88 339.12" stroke="#132e65" stroke-width="1.5"></path><path d="M815.52 529.4L815.52 529.4" stroke="#132e65" stroke-width="1.5"></path><path d="M815.52 529.4L963.45 511.68" stroke="#132e65" stroke-width="1.5"></path><path d="M815.52 529.4L843.6 688.68" stroke="#132e65" stroke-width="1.5"></path><path d="M843.6 688.68L843.6 688.68" stroke="#132e65" stroke-width="1.5"></path><path d="M843.6 688.68L995.18 680.28" stroke="#132e65" stroke-width="1.5"></path><path d="M843.6 688.68L963.45 511.68" stroke="#132e65" stroke-width="1.5"></path><path d="M996.72 104.61L996.72 104.61" stroke="#132e65" stroke-width="1.5"></path><path d="M996.72 104.61L958.65 231.79" stroke="#132e65" stroke-width="1.5"></path><path d="M996.72 104.61L1133.43 74.15" stroke="#132e65" stroke-width="1.5"></path><path d="M958.65 231.79L958.65 231.79" stroke="#132e65" stroke-width="1.5"></path><path d="M958.65 231.79L1092.99 239.33" stroke="#132e65" stroke-width="1.5"></path><path d="M958.65 231.79L801.22 227.15" stroke="#132e65" stroke-width="1.5"></path><path d="M958.65 231.79L840.88 339.12" stroke="#132e65" stroke-width="1.5"></path><path d="M958.65 231.79L1001.41 401.65" stroke="#132e65" stroke-width="1.5"></path><path d="M1001.41 401.65L1001.41 401.65" stroke="#132e65" stroke-width="1.5"></path><path d="M1001.41 401.65L963.45 511.68" stroke="#132e65" stroke-width="1.5"></path><path d="M1001.41 401.65L1151.73 382.66" stroke="#132e65" stroke-width="1.5"></path><path d="M1001.41 401.65L1090.56 546.95" stroke="#132e65" stroke-width="1.5"></path><path d="M1001.41 401.65L840.88 339.12" stroke="#132e65" stroke-width="1.5"></path><path d="M1001.41 401.65L1092.99 239.33" stroke="#132e65" stroke-width="1.5"></path><path d="M963.45 511.68L963.45 511.68" stroke="#132e65" stroke-width="1.5"></path><path d="M963.45 511.68L1090.56 546.95" stroke="#132e65" stroke-width="1.5"></path><path d="M963.45 511.68L995.18 680.28" stroke="#132e65" stroke-width="1.5"></path><path d="M963.45 511.68L840.88 339.12" stroke="#132e65" stroke-width="1.5"></path><path d="M995.18 680.28L995.18 680.28" stroke="#132e65" stroke-width="1.5"></path><path d="M995.18 680.28L1127.76 654.57" stroke="#132e65" stroke-width="1.5"></path><path d="M995.18 680.28L1090.56 546.95" stroke="#132e65" stroke-width="1.5"></path><path d="M1159.61 -91.75L1159.61 -91.75" stroke="#132e65" stroke-width="1.5"></path><path d="M1159.61 -91.75L1240.31 -108.85" stroke="#132e65" stroke-width="1.5"></path><path d="M1159.61 -91.75L1133.43 74.15" stroke="#132e65" stroke-width="1.5"></path><path d="M1159.61 -91.75L1260.97 107.86" stroke="#132e65" stroke-width="1.5"></path><path d="M1133.43 74.15L1133.43 74.15" stroke="#132e65" stroke-width="1.5"></path><path d="M1133.43 74.15L1260.97 107.86" stroke="#132e65" stroke-width="1.5"></path><path d="M1092.99 239.33L1092.99 239.33" stroke="#132e65" stroke-width="1.5"></path><path d="M1092.99 239.33L1151.73 382.66" stroke="#132e65" stroke-width="1.5"></path><path d="M1151.73 382.66L1151.73 382.66" stroke="#132e65" stroke-width="1.5"></path><path d="M1151.73 382.66L1268.1 403.16" stroke="#132e65" stroke-width="1.5"></path><path d="M1151.73 382.66L1257.82 245.61" stroke="#132e65" stroke-width="1.5"></path><path d="M1151.73 382.66L1090.56 546.95" stroke="#132e65" stroke-width="1.5"></path><path d="M1090.56 546.95L1090.56 546.95" stroke="#132e65" stroke-width="1.5"></path><path d="M1090.56 546.95L1127.76 654.57" stroke="#132e65" stroke-width="1.5"></path><path d="M1090.56 546.95L1241.24 649.19" stroke="#132e65" stroke-width="1.5"></path><path d="M1127.76 654.57L1127.76 654.57" stroke="#132e65" stroke-width="1.5"></path><path d="M1127.76 654.57L1241.24 649.19" stroke="#132e65" stroke-width="1.5"></path><path d="M1127.76 654.57L1286.18 560.05" stroke="#132e65" stroke-width="1.5"></path><path d="M1240.31 -108.85L1240.31 -108.85" stroke="#132e65" stroke-width="1.5"></path><path d="M1240.31 -108.85L1133.43 74.15" stroke="#132e65" stroke-width="1.5"></path><path d="M1240.31 -108.85L1260.97 107.86" stroke="#132e65" stroke-width="1.5"></path><path d="M1240.31 -108.85L1433.74 51.98" stroke="#132e65" stroke-width="1.5"></path><path d="M1240.31 -108.85L996.72 104.61" stroke="#132e65" stroke-width="1.5"></path><path d="M1240.31 -108.85L1585.76 -55.23" stroke="#132e65" stroke-width="1.5"></path><path d="M1260.97 107.86L1260.97 107.86" stroke="#132e65" stroke-width="1.5"></path><path d="M1260.97 107.86L1257.82 245.61" stroke="#132e65" stroke-width="1.5"></path><path d="M1260.97 107.86L1433.74 51.98" stroke="#132e65" stroke-width="1.5"></path><path d="M1260.97 107.86L1092.99 239.33" stroke="#132e65" stroke-width="1.5"></path><path d="M1257.82 245.61L1257.82 245.61" stroke="#132e65" stroke-width="1.5"></path><path d="M1257.82 245.61L1268.1 403.16" stroke="#132e65" stroke-width="1.5"></path><path d="M1268.1 403.16L1268.1 403.16" stroke="#132e65" stroke-width="1.5"></path><path d="M1268.1 403.16L1420.14 367.46" stroke="#132e65" stroke-width="1.5"></path><path d="M1268.1 403.16L1286.18 560.05" stroke="#132e65" stroke-width="1.5"></path><path d="M1268.1 403.16L1406.61 541.81" stroke="#132e65" stroke-width="1.5"></path><path d="M1268.1 403.16L1090.56 546.95" stroke="#132e65" stroke-width="1.5"></path><path d="M1286.18 560.05L1286.18 560.05" stroke="#132e65" stroke-width="1.5"></path><path d="M1286.18 560.05L1241.24 649.19" stroke="#132e65" stroke-width="1.5"></path><path d="M1286.18 560.05L1406.61 541.81" stroke="#132e65" stroke-width="1.5"></path><path d="M1241.24 649.19L1241.24 649.19" stroke="#132e65" stroke-width="1.5"></path><path d="M1241.24 649.19L1397.61 707.17" stroke="#132e65" stroke-width="1.5"></path><path d="M1433.74 51.98L1433.74 51.98" stroke="#132e65" stroke-width="1.5"></path><path d="M1433.74 51.98L1577.2 89.57" stroke="#132e65" stroke-width="1.5"></path><path d="M1420.14 367.46L1420.14 367.46" stroke="#132e65" stroke-width="1.5"></path><path d="M1420.14 367.46L1406.61 541.81" stroke="#132e65" stroke-width="1.5"></path><path d="M1420.14 367.46L1601.26 406.89" stroke="#132e65" stroke-width="1.5"></path><path d="M1406.61 541.81L1406.61 541.81" stroke="#132e65" stroke-width="1.5"></path><path d="M1397.61 707.17L1397.61 707.17" stroke="#132e65" stroke-width="1.5"></path><path d="M1397.61 707.17L1406.61 541.81" stroke="#132e65" stroke-width="1.5"></path><path d="M1397.61 707.17L1286.18 560.05" stroke="#132e65" stroke-width="1.5"></path><path d="M1585.76 -55.23L1585.76 -55.23" stroke="#132e65" stroke-width="1.5"></path><path d="M1585.76 -55.23L1577.2 89.57" stroke="#132e65" stroke-width="1.5"></path><path d="M1585.76 -55.23L1433.74 51.98" stroke="#132e65" stroke-width="1.5"></path><path d="M1577.2 89.57L1577.2 89.57" stroke="#132e65" stroke-width="1.5"></path><path d="M1577.2 89.57L1552.08 227.46" stroke="#132e65" stroke-width="1.5"></path><path d="M1577.2 89.57L1260.97 107.86" stroke="#132e65" stroke-width="1.5"></path><path d="M1577.2 89.57L1601.26 406.89" stroke="#132e65" stroke-width="1.5"></path><path d="M1552.08 227.46L1552.08 227.46" stroke="#132e65" stroke-width="1.5"></path><path d="M1552.08 227.46L1601.26 406.89" stroke="#132e65" stroke-width="1.5"></path><path d="M1552.08 227.46L1420.14 367.46" stroke="#132e65" stroke-width="1.5"></path><path d="M1552.08 227.46L1433.74 51.98" stroke="#132e65" stroke-width="1.5"></path><path d="M1601.26 406.89L1601.26 406.89" stroke="#132e65" stroke-width="1.5"></path><path d="M1601.26 406.89L1547.52 527.47" stroke="#132e65" stroke-width="1.5"></path><path d="M1547.52 527.47L1547.52 527.47" stroke="#132e65" stroke-width="1.5"></path><path d="M1547.52 527.47L1406.61 541.81" stroke="#132e65" stroke-width="1.5"></path><path d="M1547.52 527.47L1601.74 689.53" stroke="#132e65" stroke-width="1.5"></path><path d="M1547.52 527.47L1420.14 367.46" stroke="#132e65" stroke-width="1.5"></path><path d="M1547.52 527.47L1397.61 707.17" stroke="#132e65" stroke-width="1.5"></path><path d="M1547.52 527.47L1286.18 560.05" stroke="#132e65" stroke-width="1.5"></path><path d="M1601.74 689.53L1601.74 689.53" stroke="#132e65" stroke-width="1.5"></path><path d="M1601.74 689.53L1397.61 707.17" stroke="#132e65" stroke-width="1.5"></path><path d="M1601.74 689.53L1406.61 541.81" stroke="#132e65" stroke-width="1.5"></path><path d="M1601.74 689.53L1601.26 406.89" stroke="#132e65" stroke-width="1.5"></path><circle r="5" cx="-69.84" cy="408.48" fill="#132e65"></circle><circle r="5" cx="-100.78" cy="519.77" fill="#132e65"></circle><circle r="5" cx="60.92" cy="396.52" fill="#132e65"></circle><circle r="5" cx="104.2" cy="543.66" fill="#132e65"></circle><circle r="5" cx="62.13" cy="677.17" fill="#132e65"></circle><circle r="5" cx="239.13" cy="406.76" fill="#132e65"></circle><circle r="5" cx="195.71" cy="494.73" fill="#132e65"></circle><circle r="5" cx="249.8" cy="673.18" fill="#132e65"></circle><circle r="5" cx="358.98" cy="396" fill="#132e65"></circle><circle r="5" cx="370.76" cy="547.55" fill="#132e65"></circle><circle r="5" cx="359.99" cy="692.49" fill="#132e65"></circle><circle r="5" cx="555.93" cy="355.24" fill="#132e65"></circle><circle r="5" cx="507.6" cy="546.89" fill="#132e65"></circle><circle r="5" cx="490.76" cy="705.96" fill="#132e65"></circle><circle r="5" cx="641.42" cy="249.21" fill="#132e65"></circle><circle r="5" cx="651.41" cy="380.34" fill="#132e65"></circle><circle r="5" cx="672.09" cy="518.06" fill="#132e65"></circle><circle r="5" cx="677.79" cy="658.49" fill="#132e65"></circle><circle r="5" cx="826.06" cy="112.29" fill="#132e65"></circle><circle r="5" cx="801.22" cy="227.15" fill="#132e65"></circle><circle r="5" cx="840.88" cy="339.12" fill="#132e65"></circle><circle r="5" cx="815.52" cy="529.4" fill="#132e65"></circle><circle r="5" cx="843.6" cy="688.68" fill="#132e65"></circle><circle r="5" cx="996.72" cy="104.61" fill="#132e65"></circle><circle r="5" cx="958.65" cy="231.79" fill="#132e65"></circle><circle r="5" cx="1001.41" cy="401.65" fill="#132e65"></circle><circle r="5" cx="963.45" cy="511.68" fill="#132e65"></circle><circle r="5" cx="995.18" cy="680.28" fill="#132e65"></circle><circle r="5" cx="1159.61" cy="-91.75" fill="#132e65"></circle><circle r="5" cx="1133.43" cy="74.15" fill="#132e65"></circle><circle r="5" cx="1092.99" cy="239.33" fill="#132e65"></circle><circle r="5" cx="1151.73" cy="382.66" fill="#132e65"></circle><circle r="5" cx="1090.56" cy="546.95" fill="#132e65"></circle><circle r="5" cx="1127.76" cy="654.57" fill="#132e65"></circle><circle r="5" cx="1240.31" cy="-108.85" fill="#132e65"></circle><circle r="5" cx="1260.97" cy="107.86" fill="#132e65"></circle><circle r="5" cx="1257.82" cy="245.61" fill="#132e65"></circle><circle r="5" cx="1268.1" cy="403.16" fill="#132e65"></circle><circle r="5" cx="1286.18" cy="560.05" fill="#132e65"></circle><circle r="5" cx="1241.24" cy="649.19" fill="#132e65"></circle><circle r="5" cx="1433.74" cy="51.98" fill="#132e65"></circle><circle r="5" cx="1420.14" cy="367.46" fill="#132e65"></circle><circle r="5" cx="1406.61" cy="541.81" fill="#132e65"></circle><circle r="5" cx="1397.61" cy="707.17" fill="#132e65"></circle><circle r="5" cx="1585.76" cy="-55.23" fill="#132e65"></circle><circle r="5" cx="1577.2" cy="89.57" fill="#132e65"></circle><circle r="5" cx="1552.08" cy="227.46" fill="#132e65"></circle><circle r="5" cx="1601.26" cy="406.89" fill="#132e65"></circle><circle r="5" cx="1547.52" cy="527.47" fill="#132e65"></circle><circle r="5" cx="1601.74" cy="689.53" fill="#132e65"></circle><path d="M232.48 637.73L232.48 637.73" stroke="hsl(228.5, 77.2%, 51.5%)" stroke-width="1.5"></path><path d="M232.48 637.73L219.74 550.12" stroke="hsl(228.5, 77.2%, 51.5%)" stroke-width="1.5"></path><path d="M232.48 637.73L75.87 674.87" stroke="hsl(228.5, 77.2%, 51.5%)" stroke-width="1.5"></path><path d="M232.48 637.73L354.69 526.82" stroke="hsl(228.5, 77.2%, 51.5%)" stroke-width="1.5"></path><path d="M232.48 637.73L79.7 545.14" stroke="hsl(228.5, 77.2%, 51.5%)" stroke-width="1.5"></path><path d="M845.86 359.21L845.86 359.21" stroke="hsl(228.5, 77.2%, 51.5%)" stroke-width="1.5"></path><path d="M845.86 359.21L951.41 379.2" stroke="hsl(228.5, 77.2%, 51.5%)" stroke-width="1.5"></path><path d="M845.86 359.21L792.98 490.2" stroke="hsl(228.5, 77.2%, 51.5%)" stroke-width="1.5"></path><path d="M845.86 359.21L948.96 512.56" stroke="hsl(228.5, 77.2%, 51.5%)" stroke-width="1.5"></path><path d="M948.96 512.56L948.96 512.56" stroke="hsl(228.5, 77.2%, 51.5%)" stroke-width="1.5"></path><path d="M948.96 512.56L951.41 379.2" stroke="hsl(228.5, 77.2%, 51.5%)" stroke-width="1.5"></path><path d="M948.96 512.56L1097.22 518.33" stroke="hsl(228.5, 77.2%, 51.5%)" stroke-width="1.5"></path><path d="M948.96 512.56L792.98 490.2" stroke="hsl(228.5, 77.2%, 51.5%)" stroke-width="1.5"></path><path d="M1098.47 665.87L1098.47 665.87" stroke="hsl(228.5, 77.2%, 51.5%)" stroke-width="1.5"></path><path d="M1098.47 665.87L1097.22 518.33" stroke="hsl(228.5, 77.2%, 51.5%)" stroke-width="1.5"></path><path d="M1098.47 665.87L1271.9 557.38" stroke="hsl(228.5, 77.2%, 51.5%)" stroke-width="1.5"></path><path d="M1098.47 665.87L1307.19 652.37" stroke="hsl(228.5, 77.2%, 51.5%)" stroke-width="1.5"></path><path d="M1098.47 665.87L948.96 512.56" stroke="hsl(228.5, 77.2%, 51.5%)" stroke-width="1.5"></path><path d="M1397.84 499.6L1397.84 499.6" stroke="hsl(228.5, 77.2%, 51.5%)" stroke-width="1.5"></path><path d="M1397.84 499.6L1412.4 393.57" stroke="hsl(228.5, 77.2%, 51.5%)" stroke-width="1.5"></path><path d="M1397.84 499.6L1271.9 557.38" stroke="hsl(228.5, 77.2%, 51.5%)" stroke-width="1.5"></path><path d="M1397.84 499.6L1423.47 656.66" stroke="hsl(228.5, 77.2%, 51.5%)" stroke-width="1.5"></path><path d="M1397.84 499.6L1307.19 652.37" stroke="hsl(228.5, 77.2%, 51.5%)" stroke-width="1.5"></path><path d="M-41.17 547.13L-41.17 547.13" stroke="hsl(228.5, 77.2%, 51.5%)" stroke-width="1.5"></path><path d="M-41.17 547.13L79.7 545.14" stroke="hsl(228.5, 77.2%, 51.5%)" stroke-width="1.5"></path><path d="M-41.17 547.13L-100.39 684.24" stroke="hsl(228.5, 77.2%, 51.5%)" stroke-width="1.5"></path><path d="M-41.17 547.13L75.87 674.87" stroke="hsl(228.5, 77.2%, 51.5%)" stroke-width="1.5"></path><path d="M-100.39 684.24L-100.39 684.24" stroke="hsl(228.5, 77.2%, 51.5%)" stroke-width="1.5"></path><path d="M-100.39 684.24L75.87 674.87" stroke="hsl(228.5, 77.2%, 51.5%)" stroke-width="1.5"></path><path d="M-100.39 684.24L79.7 545.14" stroke="hsl(228.5, 77.2%, 51.5%)" stroke-width="1.5"></path><path d="M-100.39 684.24L232.48 637.73" stroke="hsl(228.5, 77.2%, 51.5%)" stroke-width="1.5"></path><path d="M79.7 545.14L79.7 545.14" stroke="hsl(228.5, 77.2%, 51.5%)" stroke-width="1.5"></path><path d="M79.7 545.14L75.87 674.87" stroke="hsl(228.5, 77.2%, 51.5%)" stroke-width="1.5"></path><path d="M79.7 545.14L219.74 550.12" stroke="hsl(228.5, 77.2%, 51.5%)" stroke-width="1.5"></path><path d="M75.87 674.87L75.87 674.87" stroke="hsl(228.5, 77.2%, 51.5%)" stroke-width="1.5"></path><path d="M75.87 674.87L219.74 550.12" stroke="hsl(228.5, 77.2%, 51.5%)" stroke-width="1.5"></path><path d="M219.74 550.12L219.74 550.12" stroke="hsl(228.5, 77.2%, 51.5%)" stroke-width="1.5"></path><path d="M219.74 550.12L354.69 526.82" stroke="hsl(228.5, 77.2%, 51.5%)" stroke-width="1.5"></path><path d="M219.74 550.12L-41.17 547.13" stroke="hsl(228.5, 77.2%, 51.5%)" stroke-width="1.5"></path><path d="M354.69 526.82L354.69 526.82" stroke="hsl(228.5, 77.2%, 51.5%)" stroke-width="1.5"></path><path d="M354.69 526.82L518.88 504.09" stroke="hsl(228.5, 77.2%, 51.5%)" stroke-width="1.5"></path><path d="M354.69 526.82L500.4 410.12" stroke="hsl(228.5, 77.2%, 51.5%)" stroke-width="1.5"></path><path d="M354.69 526.82L494.95 661.94" stroke="hsl(228.5, 77.2%, 51.5%)" stroke-width="1.5"></path><path d="M500.4 410.12L500.4 410.12" stroke="hsl(228.5, 77.2%, 51.5%)" stroke-width="1.5"></path><path d="M500.4 410.12L518.88 504.09" stroke="hsl(228.5, 77.2%, 51.5%)" stroke-width="1.5"></path><path d="M500.4 410.12L637.55 511.98" stroke="hsl(228.5, 77.2%, 51.5%)" stroke-width="1.5"></path><path d="M500.4 410.12L494.95 661.94" stroke="hsl(228.5, 77.2%, 51.5%)" stroke-width="1.5"></path><path d="M500.4 410.12L792.98 490.2" stroke="hsl(228.5, 77.2%, 51.5%)" stroke-width="1.5"></path><path d="M500.4 410.12L219.74 550.12" stroke="hsl(228.5, 77.2%, 51.5%)" stroke-width="1.5"></path><path d="M518.88 504.09L518.88 504.09" stroke="hsl(228.5, 77.2%, 51.5%)" stroke-width="1.5"></path><path d="M518.88 504.09L637.55 511.98" stroke="hsl(228.5, 77.2%, 51.5%)" stroke-width="1.5"></path><path d="M518.88 504.09L494.95 661.94" stroke="hsl(228.5, 77.2%, 51.5%)" stroke-width="1.5"></path><path d="M494.95 661.94L494.95 661.94" stroke="hsl(228.5, 77.2%, 51.5%)" stroke-width="1.5"></path><path d="M494.95 661.94L658.54 701.8" stroke="hsl(228.5, 77.2%, 51.5%)" stroke-width="1.5"></path><path d="M637.55 511.98L637.55 511.98" stroke="hsl(228.5, 77.2%, 51.5%)" stroke-width="1.5"></path><path d="M637.55 511.98L792.98 490.2" stroke="hsl(228.5, 77.2%, 51.5%)" stroke-width="1.5"></path><path d="M637.55 511.98L658.54 701.8" stroke="hsl(228.5, 77.2%, 51.5%)" stroke-width="1.5"></path><path d="M637.55 511.98L494.95 661.94" stroke="hsl(228.5, 77.2%, 51.5%)" stroke-width="1.5"></path><path d="M658.54 701.8L658.54 701.8" stroke="hsl(228.5, 77.2%, 51.5%)" stroke-width="1.5"></path><path d="M658.54 701.8L788.57 678.03" stroke="hsl(228.5, 77.2%, 51.5%)" stroke-width="1.5"></path><path d="M658.54 701.8L518.88 504.09" stroke="hsl(228.5, 77.2%, 51.5%)" stroke-width="1.5"></path><path d="M792.98 490.2L792.98 490.2" stroke="hsl(228.5, 77.2%, 51.5%)" stroke-width="1.5"></path><path d="M792.98 490.2L788.57 678.03" stroke="hsl(228.5, 77.2%, 51.5%)" stroke-width="1.5"></path><path d="M788.57 678.03L788.57 678.03" stroke="hsl(228.5, 77.2%, 51.5%)" stroke-width="1.5"></path><path d="M788.57 678.03L637.55 511.98" stroke="hsl(228.5, 77.2%, 51.5%)" stroke-width="1.5"></path><path d="M788.57 678.03L948.96 512.56" stroke="hsl(228.5, 77.2%, 51.5%)" stroke-width="1.5"></path><path d="M951.41 379.2L951.41 379.2" stroke="hsl(228.5, 77.2%, 51.5%)" stroke-width="1.5"></path><path d="M951.41 379.2L1142.15 407.9" stroke="hsl(228.5, 77.2%, 51.5%)" stroke-width="1.5"></path><path d="M1154.95 61.59L1154.95 61.59" stroke="hsl(228.5, 77.2%, 51.5%)" stroke-width="1.5"></path><path d="M1154.95 61.59L1252.01 83.95" stroke="hsl(228.5, 77.2%, 51.5%)" stroke-width="1.5"></path><path d="M1154.95 61.59L1238.18 -81.55" stroke="hsl(228.5, 77.2%, 51.5%)" stroke-width="1.5"></path><path d="M1154.95 61.59L1127.78 253.76" stroke="hsl(228.5, 77.2%, 51.5%)" stroke-width="1.5"></path><path d="M1154.95 61.59L1277.53 213.76" stroke="hsl(228.5, 77.2%, 51.5%)" stroke-width="1.5"></path><path d="M1154.95 61.59L1439.95 -70.75" stroke="hsl(228.5, 77.2%, 51.5%)" stroke-width="1.5"></path><path d="M1154.95 61.59L1287.98 347.84" stroke="hsl(228.5, 77.2%, 51.5%)" stroke-width="1.5"></path><path d="M1127.78 253.76L1127.78 253.76" stroke="hsl(228.5, 77.2%, 51.5%)" stroke-width="1.5"></path><path d="M1127.78 253.76L1142.15 407.9" stroke="hsl(228.5, 77.2%, 51.5%)" stroke-width="1.5"></path><path d="M1127.78 253.76L1277.53 213.76" stroke="hsl(228.5, 77.2%, 51.5%)" stroke-width="1.5"></path><path d="M1127.78 253.76L1287.98 347.84" stroke="hsl(228.5, 77.2%, 51.5%)" stroke-width="1.5"></path><path d="M1142.15 407.9L1142.15 407.9" stroke="hsl(228.5, 77.2%, 51.5%)" stroke-width="1.5"></path><path d="M1142.15 407.9L1097.22 518.33" stroke="hsl(228.5, 77.2%, 51.5%)" stroke-width="1.5"></path><path d="M1142.15 407.9L1287.98 347.84" stroke="hsl(228.5, 77.2%, 51.5%)" stroke-width="1.5"></path><path d="M1097.22 518.33L1097.22 518.33" stroke="hsl(228.5, 77.2%, 51.5%)" stroke-width="1.5"></path><path d="M1238.18 -81.55L1238.18 -81.55" stroke="hsl(228.5, 77.2%, 51.5%)" stroke-width="1.5"></path><path d="M1238.18 -81.55L1252.01 83.95" stroke="hsl(228.5, 77.2%, 51.5%)" stroke-width="1.5"></path><path d="M1238.18 -81.55L1439.95 -70.75" stroke="hsl(228.5, 77.2%, 51.5%)" stroke-width="1.5"></path><path d="M1238.18 -81.55L1277.53 213.76" stroke="hsl(228.5, 77.2%, 51.5%)" stroke-width="1.5"></path><path d="M1238.18 -81.55L1538.79 -68.18" stroke="hsl(228.5, 77.2%, 51.5%)" stroke-width="1.5"></path><path d="M1252.01 83.95L1252.01 83.95" stroke="hsl(228.5, 77.2%, 51.5%)" stroke-width="1.5"></path><path d="M1252.01 83.95L1277.53 213.76" stroke="hsl(228.5, 77.2%, 51.5%)" stroke-width="1.5"></path><path d="M1252.01 83.95L1127.78 253.76" stroke="hsl(228.5, 77.2%, 51.5%)" stroke-width="1.5"></path><path d="M1252.01 83.95L1439.95 -70.75" stroke="hsl(228.5, 77.2%, 51.5%)" stroke-width="1.5"></path><path d="M1252.01 83.95L1453.67 251.49" stroke="hsl(228.5, 77.2%, 51.5%)" stroke-width="1.5"></path><path d="M1277.53 213.76L1277.53 213.76" stroke="hsl(228.5, 77.2%, 51.5%)" stroke-width="1.5"></path><path d="M1277.53 213.76L1287.98 347.84" stroke="hsl(228.5, 77.2%, 51.5%)" stroke-width="1.5"></path><path d="M1287.98 347.84L1287.98 347.84" stroke="hsl(228.5, 77.2%, 51.5%)" stroke-width="1.5"></path><path d="M1287.98 347.84L1412.4 393.57" stroke="hsl(228.5, 77.2%, 51.5%)" stroke-width="1.5"></path><path d="M1271.9 557.38L1271.9 557.38" stroke="hsl(228.5, 77.2%, 51.5%)" stroke-width="1.5"></path><path d="M1271.9 557.38L1307.19 652.37" stroke="hsl(228.5, 77.2%, 51.5%)" stroke-width="1.5"></path><path d="M1271.9 557.38L1097.22 518.33" stroke="hsl(228.5, 77.2%, 51.5%)" stroke-width="1.5"></path><path d="M1271.9 557.38L1423.47 656.66" stroke="hsl(228.5, 77.2%, 51.5%)" stroke-width="1.5"></path><path d="M1271.9 557.38L1142.15 407.9" stroke="hsl(228.5, 77.2%, 51.5%)" stroke-width="1.5"></path><path d="M1307.19 652.37L1307.19 652.37" stroke="hsl(228.5, 77.2%, 51.5%)" stroke-width="1.5"></path><path d="M1307.19 652.37L1423.47 656.66" stroke="hsl(228.5, 77.2%, 51.5%)" stroke-width="1.5"></path><path d="M1439.95 -70.75L1439.95 -70.75" stroke="hsl(228.5, 77.2%, 51.5%)" stroke-width="1.5"></path><path d="M1439.95 -70.75L1538.79 -68.18" stroke="hsl(228.5, 77.2%, 51.5%)" stroke-width="1.5"></path><path d="M1453.67 251.49L1453.67 251.49" stroke="hsl(228.5, 77.2%, 51.5%)" stroke-width="1.5"></path><path d="M1453.67 251.49L1584.35 244.32" stroke="hsl(228.5, 77.2%, 51.5%)" stroke-width="1.5"></path><path d="M1453.67 251.49L1412.4 393.57" stroke="hsl(228.5, 77.2%, 51.5%)" stroke-width="1.5"></path><path d="M1412.4 393.57L1412.4 393.57" stroke="hsl(228.5, 77.2%, 51.5%)" stroke-width="1.5"></path><path d="M1423.47 656.66L1423.47 656.66" stroke="hsl(228.5, 77.2%, 51.5%)" stroke-width="1.5"></path><path d="M1423.47 656.66L1585.57 684.79" stroke="hsl(228.5, 77.2%, 51.5%)" stroke-width="1.5"></path><path d="M1538.79 -68.18L1538.79 -68.18" stroke="hsl(228.5, 77.2%, 51.5%)" stroke-width="1.5"></path><path d="M1538.79 -68.18L1538.9 107.48" stroke="hsl(228.5, 77.2%, 51.5%)" stroke-width="1.5"></path><path d="M1538.9 107.48L1538.9 107.48" stroke="hsl(228.5, 77.2%, 51.5%)" stroke-width="1.5"></path><path d="M1538.9 107.48L1584.35 244.32" stroke="hsl(228.5, 77.2%, 51.5%)" stroke-width="1.5"></path><path d="M1538.9 107.48L1453.67 251.49" stroke="hsl(228.5, 77.2%, 51.5%)" stroke-width="1.5"></path><path d="M1538.9 107.48L1439.95 -70.75" stroke="hsl(228.5, 77.2%, 51.5%)" stroke-width="1.5"></path><path d="M1538.9 107.48L1277.53 213.76" stroke="hsl(228.5, 77.2%, 51.5%)" stroke-width="1.5"></path><path d="M1538.9 107.48L1252.01 83.95" stroke="hsl(228.5, 77.2%, 51.5%)" stroke-width="1.5"></path><path d="M1584.35 244.32L1584.35 244.32" stroke="hsl(228.5, 77.2%, 51.5%)" stroke-width="1.5"></path><path d="M1584.35 244.32L1585.75 409.35" stroke="hsl(228.5, 77.2%, 51.5%)" stroke-width="1.5"></path><path d="M1584.35 244.32L1412.4 393.57" stroke="hsl(228.5, 77.2%, 51.5%)" stroke-width="1.5"></path><path d="M1585.75 409.35L1585.75 409.35" stroke="hsl(228.5, 77.2%, 51.5%)" stroke-width="1.5"></path><path d="M1585.75 409.35L1583.69 532.14" stroke="hsl(228.5, 77.2%, 51.5%)" stroke-width="1.5"></path><path d="M1585.75 409.35L1412.4 393.57" stroke="hsl(228.5, 77.2%, 51.5%)" stroke-width="1.5"></path><path d="M1583.69 532.14L1583.69 532.14" stroke="hsl(228.5, 77.2%, 51.5%)" stroke-width="1.5"></path><path d="M1583.69 532.14L1585.57 684.79" stroke="hsl(228.5, 77.2%, 51.5%)" stroke-width="1.5"></path><path d="M1583.69 532.14L1397.84 499.6" stroke="hsl(228.5, 77.2%, 51.5%)" stroke-width="1.5"></path><path d="M1583.69 532.14L1423.47 656.66" stroke="hsl(228.5, 77.2%, 51.5%)" stroke-width="1.5"></path><path d="M1585.57 684.79L1585.57 684.79" stroke="hsl(228.5, 77.2%, 51.5%)" stroke-width="1.5"></path><path d="M1585.57 684.79L1397.84 499.6" stroke="hsl(228.5, 77.2%, 51.5%)" stroke-width="1.5"></path><path d="M1585.57 684.79L1585.75 409.35" stroke="hsl(228.5, 77.2%, 51.5%)" stroke-width="1.5"></path><path d="M1585.57 684.79L1307.19 652.37" stroke="hsl(228.5, 77.2%, 51.5%)" stroke-width="1.5"></path><path d="M1585.57 684.79L1271.9 557.38" stroke="hsl(228.5, 77.2%, 51.5%)" stroke-width="1.5"></path><circle r="25" cx="232.48" cy="637.73" fill="url(#SvgjsRadialGradient1019)"></circle><circle r="25" cx="845.86" cy="359.21" fill="url(#SvgjsRadialGradient1019)"></circle><circle r="25" cx="948.96" cy="512.56" fill="url(#SvgjsRadialGradient1019)"></circle><circle r="25" cx="1098.47" cy="665.87" fill="url(#SvgjsRadialGradient1019)"></circle><circle r="25" cx="1397.84" cy="499.6" fill="url(#SvgjsRadialGradient1019)"></circle><circle r="5" cx="-41.17" cy="547.13" fill="#8b9ad9"></circle><circle r="5" cx="-100.39" cy="684.24" fill="#8b9ad9"></circle><circle r="5" cx="79.7" cy="545.14" fill="#8b9ad9"></circle><circle r="5" cx="75.87" cy="674.87" fill="#8b9ad9"></circle><circle r="5" cx="219.74" cy="550.12" fill="#8b9ad9"></circle><circle r="5" cx="354.69" cy="526.82" fill="#8b9ad9"></circle><circle r="5" cx="500.4" cy="410.12" fill="#8b9ad9"></circle><circle r="5" cx="518.88" cy="504.09" fill="#8b9ad9"></circle><circle r="5" cx="494.95" cy="661.94" fill="#8b9ad9"></circle><circle r="5" cx="637.55" cy="511.98" fill="#8b9ad9"></circle><circle r="5" cx="658.54" cy="701.8" fill="#8b9ad9"></circle><circle r="5" cx="792.98" cy="490.2" fill="#8b9ad9"></circle><circle r="5" cx="788.57" cy="678.03" fill="#8b9ad9"></circle><circle r="5" cx="951.41" cy="379.2" fill="#8b9ad9"></circle><circle r="5" cx="1154.95" cy="61.59" fill="#8b9ad9"></circle><circle r="5" cx="1127.78" cy="253.76" fill="#8b9ad9"></circle><circle r="5" cx="1142.15" cy="407.9" fill="#8b9ad9"></circle><circle r="5" cx="1097.22" cy="518.33" fill="#8b9ad9"></circle><circle r="5" cx="1238.18" cy="-81.55" fill="#8b9ad9"></circle><circle r="5" cx="1252.01" cy="83.95" fill="#8b9ad9"></circle><circle r="5" cx="1277.53" cy="213.76" fill="#8b9ad9"></circle><circle r="5" cx="1287.98" cy="347.84" fill="#8b9ad9"></circle><circle r="5" cx="1271.9" cy="557.38" fill="#8b9ad9"></circle><circle r="5" cx="1307.19" cy="652.37" fill="#8b9ad9"></circle><circle r="5" cx="1439.95" cy="-70.75" fill="#8b9ad9"></circle><circle r="5" cx="1453.67" cy="251.49" fill="#8b9ad9"></circle><circle r="5" cx="1412.4" cy="393.57" fill="#8b9ad9"></circle><circle r="5" cx="1423.47" cy="656.66" fill="#8b9ad9"></circle><circle r="5" cx="1538.79" cy="-68.18" fill="#8b9ad9"></circle><circle r="5" cx="1538.9" cy="107.48" fill="#8b9ad9"></circle><circle r="5" cx="1584.35" cy="244.32" fill="#8b9ad9"></circle><circle r="5" cx="1585.75" cy="409.35" fill="#8b9ad9"></circle><circle r="5" cx="1583.69" cy="532.14" fill="#8b9ad9"></circle><circle r="5" cx="1585.57" cy="684.79" fill="#8b9ad9"></circle></g><defs><mask id="SvgjsMask1018"><rect width="1440" height="560" fill="#ffffff"></rect></mask><radialGradient id="SvgjsRadialGradient1019"><stop stop-color="#ffffff" offset="0.1"></stop><stop stop-color="rgba(23, 53, 179, 1)" offset="0.2"></stop><stop stop-color="rgba(23, 53, 179, 0)" offset="1"></stop></radialGradient></defs></svg>